<svg xmlns="http://www.w3.org/2000/svg" viewBox="0 0 21.251 22.868">
  <defs>
    <style>
      .cls-1 {
        fill: #c1c1c1;
      }
    </style>
  </defs>
  <g id="shopping-cart" transform="translate(-17.2 9)">
    <path id="Path_18" data-name="Path 18" class="cls-1" d="M23.257,15.057h12.6a2.6,2.6,0,0,0,2.594-2.594V7.1a.06.06,0,0,0,0-.028c0-.009,0-.023,0-.033s0-.019,0-.028a.3.3,0,0,1-.009-.033c0-.009,0-.019-.009-.028s0-.019-.009-.028a.229.229,0,0,1-.014-.033.1.1,0,0,0-.014-.023l-.014-.028c0-.009-.009-.014-.014-.023s-.014-.019-.019-.028a.083.083,0,0,0-.019-.023c0-.009-.014-.014-.019-.023s-.014-.014-.019-.023-.014-.014-.019-.019l-.023-.023c-.009,0-.014-.014-.024-.019s-.019-.014-.028-.019l-.023-.014a.1.1,0,0,1-.028-.019L38.1,6.593l-.028-.014-.028-.014c-.009,0-.019,0-.028-.009a.087.087,0,0,0-.033-.009.2.2,0,0,1-.023,0,.1.1,0,0,0-.038,0s-.009,0-.019,0l-15.97-2.2V2.1a.289.289,0,0,0,0-.066.036.036,0,0,0,0-.019c0-.014,0-.028,0-.042s0-.023-.009-.038,0-.014,0-.023l-.014-.042s0-.014,0-.019a.141.141,0,0,0-.019-.038s0-.014-.009-.019a.1.1,0,0,0-.019-.028c0-.009-.009-.014-.014-.023s-.009-.014-.014-.023S21.8,1.7,21.8,1.691l-.014-.014-.028-.028-.014-.014a.2.2,0,0,0-.033-.028s-.014-.009-.019-.014-.019-.014-.028-.023a.433.433,0,0,0-.038-.023s-.009,0-.014-.009l-.061-.028L18.082.05a.635.635,0,0,0-.493,1.17l3.074,1.3v13.9a2.6,2.6,0,0,0,2.261,2.571,2.56,2.56,0,1,0,4.756,1.316,2.513,2.513,0,0,0-.352-1.292h5.706a2.526,2.526,0,0,0-.352,1.292,2.561,2.561,0,1,0,2.561-2.561H23.257a1.327,1.327,0,0,1-1.325-1.325V14.7A2.624,2.624,0,0,0,23.257,15.057ZM26.415,20.3a1.292,1.292,0,1,1-1.292-1.292A1.295,1.295,0,0,1,26.415,20.3Zm10.123,0a1.292,1.292,0,1,1-1.292-1.292A1.295,1.295,0,0,1,36.539,20.3Zm-.681-6.514h-12.6a1.327,1.327,0,0,1-1.325-1.325V5.606l15.251,2.1v4.752A1.328,1.328,0,0,1,35.857,13.788Z" transform="translate(0 -9)"/>
  </g>
</svg>
