<svg xmlns="http://www.w3.org/2000/svg" viewBox="0 0 40.551 29.131">
  <defs>
    <style>
      .cls-1 {
        fill: none;
        stroke: #84a2ab;
        stroke-width: 2px;
      }
    </style>
  </defs>
  <g id="_003-youtube" data-name="003-youtube" transform="translate(1 1)">
    <path id="XMLID_823_" class="cls-1" d="M37.049,48.246c-1.392-1.654-3.961-2.329-8.868-2.329H10.37c-5.019,0-7.632.718-9.018,2.479C0,50.114,0,52.644,0,56.145V62.82C0,69.6,1.6,73.048,10.37,73.048H28.181c4.255,0,6.613-.6,8.138-2.055,1.564-1.5,2.232-3.941,2.232-8.173V56.145C38.551,52.453,38.447,49.908,37.049,48.246ZM24.75,60.4l-8.088,4.227a1.244,1.244,0,0,1-1.82-1.1V55.1A1.244,1.244,0,0,1,16.659,54l8.088,4.2a1.244,1.244,0,0,1,0,2.206Z" transform="translate(0 -45.917)"/>
  </g>
</svg>
