<svg id="Capa_1" data-name="Capa 1" xmlns="http://www.w3.org/2000/svg" viewBox="0 0 24.63 25.1"><defs><style>.cls-1{fill:#84a2ab;}</style></defs><title>Mesa de trabajo 1</title><path class="cls-1" d="M20,24H4.3A3.09,3.09,0,0,1,2,23a3.09,3.09,0,0,1-.94-2.26V5.1A3.09,3.09,0,0,1,2,2.84,3.09,3.09,0,0,1,4.3,1.9H20a3.09,3.09,0,0,1,2.26.94,3.09,3.09,0,0,1,.94,2.25V20.79A3.21,3.21,0,0,1,20,24ZM4.3,2.88a2.12,2.12,0,0,0-1.57.65A2.12,2.12,0,0,0,2.08,5.1V20.79a2.12,2.12,0,0,0,.65,1.57A2.12,2.12,0,0,0,4.3,23H20a2.23,2.23,0,0,0,2.22-2.22V5.1a2.12,2.12,0,0,0-.65-1.57A2.12,2.12,0,0,0,20,2.88ZM19.47,21.56H4.78a1.31,1.31,0,0,1-1.32-1.33V10.84H6.55l-.2.63a5.44,5.44,0,0,0-.25,1.65,5.52,5.52,0,0,0,1.78,4.15A5.9,5.9,0,0,0,12.16,19a6.14,6.14,0,0,0,3.06-.79,5.93,5.93,0,0,0,2.21-2.14,5.63,5.63,0,0,0,.81-2.94A5.47,5.47,0,0,0,18,11.47l-.2-.63h3v9.39a1.29,1.29,0,0,1-.39.95A1.31,1.31,0,0,1,19.47,21.56Zm-15-9.74v8.42a.34.34,0,0,0,.35.35H19.47a.33.33,0,0,0,.25-.1.31.31,0,0,0,.1-.25V11.81h-.74a6.69,6.69,0,0,1-.82,4.76,6.9,6.9,0,0,1-2.57,2.49,7.1,7.1,0,0,1-3.54.92,6.92,6.92,0,0,1-5-2,6.69,6.69,0,0,1-1.94-6.16Zm7.73,5.69a4.64,4.64,0,0,1-3.33-1.34,4.5,4.5,0,0,1,0-6.51,4.63,4.63,0,0,1,3.33-1.34A4.66,4.66,0,0,1,15.5,9.65a4.51,4.51,0,0,1,0,6.51h0A4.66,4.66,0,0,1,12.16,17.5Zm0-8.22a3.64,3.64,0,0,0-2.65,1.07,3.53,3.53,0,0,0,0,5.11,3.64,3.64,0,0,0,2.65,1.06,3.66,3.66,0,0,0,2.66-1.06h0a3.53,3.53,0,0,0,0-5.11A3.66,3.66,0,0,0,12.16,9.28Zm7.2.11H17A1.43,1.43,0,0,1,15.54,8V5.69a1.41,1.41,0,0,1,.41-1,1.39,1.39,0,0,1,1-.43h2.39a1.4,1.4,0,0,1,1,.43,1.42,1.42,0,0,1,.41,1V8a1.42,1.42,0,0,1-1.44,1.44ZM17,5.23a.42.42,0,0,0-.32.13.44.44,0,0,0-.14.33V8a.45.45,0,0,0,.46.46h2.39A.45.45,0,0,0,19.82,8V5.69a.44.44,0,0,0-.14-.33.42.42,0,0,0-.32-.13Z"/><path class="cls-1" d="M20,24.36H4.3a3.45,3.45,0,0,1-2.52-1,3.46,3.46,0,0,1-1-2.52V5.1a3.45,3.45,0,0,1,1-2.52A3.45,3.45,0,0,1,4.3,1.53H20a3.45,3.45,0,0,1,2.52,1A3.45,3.45,0,0,1,23.57,5.1V20.79A3.59,3.59,0,0,1,20,24.36ZM4.3,2.28a2.72,2.72,0,0,0-2,.83,2.73,2.73,0,0,0-.83,2V20.79a2.73,2.73,0,0,0,.83,2,2.73,2.73,0,0,0,2,.83H20a2.83,2.83,0,0,0,2.82-2.82V5.1a2.72,2.72,0,0,0-.83-2,2.73,2.73,0,0,0-2-.83ZM20,23.39H4.3a2.51,2.51,0,0,1-1.83-.76,2.51,2.51,0,0,1-.76-1.83V5.1a2.51,2.51,0,0,1,.76-1.83A2.51,2.51,0,0,1,4.3,2.5H20a2.51,2.51,0,0,1,1.83.76,2.51,2.51,0,0,1,.76,1.83V20.79a2.61,2.61,0,0,1-2.6,2.6ZM4.3,3.25A1.74,1.74,0,0,0,3,3.8a1.74,1.74,0,0,0-.54,1.3V20.79A1.74,1.74,0,0,0,3,22.09a1.74,1.74,0,0,0,1.3.54H20a1.86,1.86,0,0,0,1.84-1.84V5.1a1.74,1.74,0,0,0-.54-1.3A1.74,1.74,0,0,0,20,3.25ZM19.47,21.93H4.78a1.68,1.68,0,0,1-1.7-1.7V10.46h4L6.7,11.59a5.08,5.08,0,0,0-.23,1.54A5.16,5.16,0,0,0,8.13,17a5.54,5.54,0,0,0,4,1.62A5.78,5.78,0,0,0,15,17.88a5.56,5.56,0,0,0,2.08-2,5.26,5.26,0,0,0,.76-2.75,5.09,5.09,0,0,0-.23-1.54l-.36-1.12h3.9v9.77a1.66,1.66,0,0,1-.51,1.22A1.68,1.68,0,0,1,19.47,21.93ZM3.83,11.21v9a.93.93,0,0,0,.95.95H19.47a.93.93,0,0,0,.67-.27.91.91,0,0,0,.28-.68v-9H18.31l0,.14a5.87,5.87,0,0,1,.27,1.77,6,6,0,0,1-.87,3.14,6.3,6.3,0,0,1-2.35,2.28,6.51,6.51,0,0,1-3.24.84,6.26,6.26,0,0,1-4.55-1.83A6.06,6.06,0,0,1,6,11.36l0-.15ZM19.47,21H4.78a.71.71,0,0,1-.73-.73V11.44H5.71l-.09.45A6.31,6.31,0,0,0,7.45,17.7a6.56,6.56,0,0,0,4.71,1.9,6.73,6.73,0,0,0,3.35-.87,6.54,6.54,0,0,0,2.43-2.35,6.22,6.22,0,0,0,.9-3.25,6.12,6.12,0,0,0-.12-1.24l-.09-.45H20.2v8.79a.68.68,0,0,1-.22.52A.7.7,0,0,1,19.47,21ZM4.81,14.11v6.12H10.7a7.23,7.23,0,0,1-3.77-2A6.87,6.87,0,0,1,4.81,14.11Zm14.65.42a7,7,0,0,1-.87,2.23,7.29,7.29,0,0,1-2.71,2.62,7.37,7.37,0,0,1-2.26.83h5.85ZM4.81,12.19h0Zm7.36,5.69a5,5,0,0,1-3.59-1.44,4.88,4.88,0,0,1,0-7.05,5,5,0,0,1,3.59-1.44,5,5,0,0,1,3.6,1.45,4.88,4.88,0,0,1,0,7.05A5,5,0,0,1,12.16,17.88Zm0-9.19A4.27,4.27,0,0,0,9.1,9.92a4.13,4.13,0,0,0,0,6,4.27,4.27,0,0,0,3.07,1.23,4.29,4.29,0,0,0,3.08-1.23,4.13,4.13,0,0,0,0-6A4.29,4.29,0,0,0,12.16,8.68Zm0,8.22a4,4,0,0,1-2.91-1.17,3.91,3.91,0,0,1,0-5.65,4,4,0,0,1,2.91-1.17,4,4,0,0,1,2.93,1.17,3.75,3.75,0,0,1,1.21,2.83,3.76,3.76,0,0,1-1.21,2.83A4,4,0,0,1,12.16,16.9Zm0-7.24a3.28,3.28,0,0,0-2.39,1,3.15,3.15,0,0,0,0,4.57,3.29,3.29,0,0,0,2.39,1,3.31,3.31,0,0,0,2.4-1,3.16,3.16,0,0,0,0-4.57A3.31,3.31,0,0,0,12.16,9.66Zm7.2.11H17A1.8,1.8,0,0,1,15.16,8V5.69a1.78,1.78,0,0,1,.52-1.27A1.76,1.76,0,0,1,17,3.88h2.39a1.76,1.76,0,0,1,1.29.54,1.79,1.79,0,0,1,.52,1.27V8a1.8,1.8,0,0,1-1.81,1.81ZM17,4.63a1.06,1.06,0,0,0-1.06,1.06V8a1,1,0,0,0,.31.75A1,1,0,0,0,17,9h2.39A1,1,0,0,0,20.42,8V5.69a1,1,0,0,0-.31-.74,1,1,0,0,0-.75-.31Zm2.39,4.16H17A.83.83,0,0,1,16.13,8V5.69a.81.81,0,0,1,.25-.59A.79.79,0,0,1,17,4.85h2.39A.79.79,0,0,1,20,5.1a.8.8,0,0,1,.24.59V8a.83.83,0,0,1-.84.84ZM17,5.6s0,0-.05,0l0,2.33L17,8h2.39L19.45,8V5.69l-.09-.09Z"/></svg>