<svg xmlns="http://www.w3.org/2000/svg" viewBox="0 0 150.937 62.367">
  <defs>
    <style>
      .cls-1 {
        fill: #fff;
      }

      .cls-2 {
        fill: #003e52;
      }
    </style>
  </defs>
  <g id="Group_674" data-name="Group 674" transform="translate(-534.063 -2.022)">
    <g id="logo-39ytu-cesar" transform="translate(534.063 2.022)">
      <g id="Capa_1" data-name="Capa 1">
        <rect id="Rectangle_320" data-name="Rectangle 320" class="cls-1" width="150.937" height="62.367" rx="31.184"/>
        <circle id="Ellipse_469" data-name="Ellipse 469" class="cls-2" cx="25.409" cy="25.409" r="25.409" transform="translate(94.453 5.358)"/>
        <path id="Path_1675" data-name="Path 1675" class="cls-2" d="M61.11,83.823a21.106,21.106,0,0,0,6.076.89,8.909,8.909,0,0,0,5.5-1.447,5.153,5.153,0,0,0,1.889-4.356,4.536,4.536,0,0,0-1.808-4,9.5,9.5,0,0,0-5.423-1.263H65.823V71.027h1.048a7.138,7.138,0,0,0,4.9-1.556,5.468,5.468,0,0,0,1.752-4.334,4.508,4.508,0,0,0-1.2-3.363A5.167,5.167,0,0,0,68.543,60.6a10.827,10.827,0,0,0-4.191.787v3.4H61.633V59.814A15.024,15.024,0,0,1,68.757,58a8.5,8.5,0,0,1,5.911,1.932,6.443,6.443,0,0,1,2.147,5.018q0,4.648-5.028,6.95V72q6.089,1.3,6.089,6.866a8.089,8.089,0,0,1-.712,3.4,7.489,7.489,0,0,1-2.069,2.676,9.856,9.856,0,0,1-3.4,1.761,15.945,15.945,0,0,1-4.667.622,20.749,20.749,0,0,1-5.911-.821Z" transform="translate(-42.097 -39.955)"/>
        <path id="Path_1676" data-name="Path 1676" class="cls-2" d="M127.177,84.445a19.076,19.076,0,0,0,2.881.261q4.872,0,7.386-3.167t2.669-9.023l-.1-.053a9.1,9.1,0,0,1-6.758,2.831,7.921,7.921,0,0,1-5.893-2.305,8.011,8.011,0,0,1-2.281-5.868,9.125,9.125,0,0,1,2.464-6.5A8.443,8.443,0,0,1,133.987,58a8.089,8.089,0,0,1,6.935,3.422q2.489,3.422,2.489,9.769,0,7.439-3.562,11.788a11.99,11.99,0,0,1-9.794,4.356,18.356,18.356,0,0,1-2.881-.261Zm12.936-14.573a14.765,14.765,0,0,0-1.8-6.677,4.909,4.909,0,0,0-4.427-2.595,5.227,5.227,0,0,0-3.954,1.624,6.246,6.246,0,0,0-1.556,4.505,6.236,6.236,0,0,0,1.441,4.3,5.078,5.078,0,0,0,4.007,1.624A8.675,8.675,0,0,0,140.113,69.872Z" transform="translate(-86.165 -39.955)"/>
        <path id="Path_1677" data-name="Path 1677" class="cls-2" d="M233.809,72.35l-6.758,19.118a35.191,35.191,0,0,1-1.335,3.354,12.781,12.781,0,0,1-1.624,2.645,6.036,6.036,0,0,1-2.178,1.7,7.081,7.081,0,0,1-2.984.576,11.718,11.718,0,0,1-1.889-.156V96.707a12.32,12.32,0,0,0,1.938.156,6.057,6.057,0,0,0,1.556-.184,3.227,3.227,0,0,0,1.335-.731,6.533,6.533,0,0,0,1.31-1.836,27.744,27.744,0,0,0,1.531-3.69h-.264L218.355,72.35H216V69.73h7.856v2.62H221.55l4.558,14.038h.106L230.98,72.35h-2.411V69.73h7.859v2.62Z" transform="translate(-148.798 -48.036)"/>
        <path id="Path_1678" data-name="Path 1678" class="cls-1" d="M344.539,81.163a5.143,5.143,0,0,1-3.562-1.176A4.421,4.421,0,0,1,339.67,76.5V62.832h-2.62v-2.62h2.62V55.5l3.142-.579v5.289h4.713v2.62h-4.713V75.977a2.665,2.665,0,0,0,.6,2.041,2.343,2.343,0,0,0,1.6.526,5.6,5.6,0,0,0,2.514-.622v2.567a6.845,6.845,0,0,1-2.987.675Z" transform="translate(-232.187 -37.833)"/>
        <path id="Path_1679" data-name="Path 1679" class="cls-1" d="M391.594,56h-2.62v-2.62h5.759V71.187h2.62v2.62h-5.5l-.156-2.253h-.106a7.24,7.24,0,0,1-5.815,2.775,5.133,5.133,0,0,1-5.709-5.709V56h-2.62v-2.62h5.771V68.1a3.569,3.569,0,0,0,.918,2.853,3.777,3.777,0,0,0,2.489.762,6.051,6.051,0,0,0,4.978-2.464Zm-3.665-11h3.665L387.4,51.285h-2.408Z" transform="translate(-260.017 -31)"/>
      </g>
    </g>
  </g>
</svg>
