<?xml version="1.0" encoding="utf-8"?>
<!-- Generator: Adobe Illustrator 21.1.0, SVG Export Plug-In . SVG Version: 6.00 Build 0)  -->
<svg version="1.1" id="Group_608" xmlns="http://www.w3.org/2000/svg" xmlns:xlink="http://www.w3.org/1999/xlink" x="0px" y="0px"
	 viewBox="0 0 247.7 74.7" style="enable-background:new 0 0 247.7 74.7;" xml:space="preserve">
<style type="text/css">
	.st0{fill:#FFFFFF;}
	.st1{fill-rule:evenodd;clip-rule:evenodd;fill:#FFFFFF;}
</style>
<g>
	<g>
		<g>
			<polygon class="st0" points="44,60.3 23.3,37.7 2.6,60.4 			"/>
		</g>
	</g>
	<g>
		<g>
			<polygon class="st0" points="36.4,49.8 45.8,59.9 55.2,49.7 			"/>
		</g>
	</g>
	<g>
		<g>
			<polygon class="st0" points="46.2,37.2 36.3,48 56.7,48 66.5,37.2 			"/>
		</g>
	</g>
	<g>
		<g>
			<polygon class="st0" points="35.7,24.1 45.1,34.4 45.2,13.9 			"/>
		</g>
	</g>
	<g>
		<g>
			<polygon class="st0" points="46.6,35.5 66.5,35.5 46.6,13.9 			"/>
		</g>
	</g>
	<g>
		<g>
			<polygon class="st0" points="34.5,47.7 44.8,36.3 34.7,25.3 24.3,36.6 			"/>
		</g>
	</g>
	<g>
		<g>
			<polygon class="st0" points="74.7,44.5 68.3,37.5 47.6,60.2 74.7,60.2 			"/>
		</g>
	</g>
	<g>
		<g>
			<rect x="73.2" y="4.2" class="st0" width="3.3" height="66.3"/>
		</g>
	</g>
	<g>
		<g>
			<path class="st0" d="M108.8,15.9V7.2h0.9v8.7H108.8z"/>
		</g>
		<g>
			<path class="st0" d="M116.3,12v3.9h-0.9v-3.8c0-0.6-0.1-1-0.3-1.3c-0.2-0.3-0.5-0.4-1-0.4c-0.5,0-0.9,0.2-1.2,0.5
				c-0.3,0.4-0.5,0.8-0.5,1.4v3.5h-0.9v-4.4c0-0.6,0-1.2-0.1-1.7h0.9l0.1,1.1c0.2-0.4,0.4-0.7,0.8-0.9c0.3-0.2,0.7-0.3,1.2-0.3
				C115.7,9.6,116.3,10.4,116.3,12z"/>
		</g>
		<g>
			<path class="st0" d="M117.7,15.2l0.3-0.7c0.3,0.3,0.6,0.4,0.9,0.6c0.3,0.1,0.7,0.2,1,0.2c0.4,0,0.7-0.1,1-0.2
				c0.2-0.2,0.3-0.4,0.3-0.7c0-0.2-0.1-0.4-0.2-0.6c-0.1-0.1-0.4-0.3-0.7-0.3l-0.9-0.2c-0.5-0.1-0.8-0.3-1.1-0.6
				c-0.3-0.3-0.4-0.6-0.4-1.1c0-0.5,0.2-1,0.6-1.3c0.4-0.3,0.9-0.5,1.6-0.5c0.4,0,0.8,0.1,1.1,0.2c0.3,0.1,0.6,0.3,0.9,0.6l-0.3,0.7
				c-0.5-0.5-1.1-0.7-1.7-0.7c-0.4,0-0.7,0.1-0.9,0.2c-0.2,0.2-0.3,0.4-0.3,0.7c0,0.3,0.1,0.5,0.2,0.6c0.1,0.1,0.4,0.3,0.7,0.3
				l0.9,0.3c0.5,0.1,0.9,0.3,1.2,0.6c0.3,0.3,0.4,0.6,0.4,1.1c0,0.5-0.2,1-0.6,1.3c-0.4,0.3-0.9,0.5-1.6,0.5
				C119,16,118.2,15.7,117.7,15.2z"/>
		</g>
		<g>
			<path class="st0" d="M124.7,10.5v3.4c0,0.5,0.1,0.8,0.3,1c0.2,0.2,0.4,0.3,0.7,0.3c0.2,0,0.4,0,0.6-0.1v0.8
				c-0.2,0.1-0.5,0.1-0.8,0.1c-0.5,0-1-0.2-1.3-0.5c-0.3-0.3-0.5-0.8-0.5-1.5v-3.5h-1.1V9.8h1.1V8.2l0.9-0.4v1.9h1.6v0.8H124.7z"/>
		</g>
		<g>
			<path class="st0" d="M127.3,7.2h1.1v1.1h-1.1V7.2z M127.4,15.9V9.8h0.9v6.1H127.4z"/>
		</g>
		<g>
			<path class="st0" d="M131.3,10.5v3.4c0,0.5,0.1,0.8,0.3,1c0.2,0.2,0.4,0.3,0.7,0.3c0.2,0,0.4,0,0.6-0.1v0.8
				c-0.2,0.1-0.5,0.1-0.8,0.1c-0.5,0-1-0.2-1.3-0.5c-0.3-0.3-0.5-0.8-0.5-1.5v-3.5h-1.1V9.8h1.1V8.2l0.9-0.4v1.9h1.6v0.8H131.3z"/>
		</g>
		<g>
			<path class="st0" d="M138.7,9.8v6.1h-0.9v-1.1c-0.2,0.4-0.4,0.7-0.7,0.9c-0.3,0.2-0.7,0.3-1.1,0.3c-0.7,0-1.2-0.2-1.5-0.6
				c-0.3-0.4-0.5-1-0.5-1.8V9.8h0.9v3.8c0,0.6,0.1,1,0.3,1.2c0.2,0.3,0.5,0.4,0.9,0.4c0.5,0,0.9-0.2,1.2-0.5
				c0.3-0.4,0.5-0.8,0.5-1.4V9.8H138.7z"/>
		</g>
		<g>
			<path class="st0" d="M141.6,10.5v3.4c0,0.5,0.1,0.8,0.3,1c0.2,0.2,0.4,0.3,0.7,0.3c0.2,0,0.4,0,0.6-0.1v0.8
				c-0.2,0.1-0.5,0.1-0.8,0.1c-0.5,0-1-0.2-1.3-0.5c-0.3-0.3-0.5-0.8-0.5-1.5v-3.5h-1.1V9.8h1.1V8.2l0.9-0.4v1.9h1.6v0.8H141.6z"/>
		</g>
		<g>
			<path class="st0" d="M145.2,15.6c-0.4-0.3-0.7-0.6-0.9-1.1c-0.2-0.5-0.3-1-0.3-1.7c0-0.6,0.1-1.2,0.3-1.7
				c0.2-0.5,0.5-0.9,0.9-1.1s0.9-0.4,1.4-0.4c0.5,0,1,0.1,1.4,0.4s0.7,0.6,0.9,1.1c0.2,0.5,0.3,1,0.3,1.7c0,0.6-0.1,1.2-0.3,1.7
				c-0.2,0.5-0.5,0.9-0.9,1.1c-0.4,0.3-0.9,0.4-1.4,0.4C146.1,16,145.6,15.9,145.2,15.6z M147.9,14.6c0.3-0.4,0.4-1,0.4-1.8
				c0-0.7-0.2-1.3-0.5-1.7c-0.3-0.4-0.7-0.6-1.3-0.6c-0.5,0-1,0.2-1.3,0.6c-0.3,0.4-0.5,1-0.5,1.7c0,0.8,0.2,1.4,0.5,1.8
				c0.3,0.4,0.7,0.6,1.3,0.6S147.6,15,147.9,14.6z"/>
		</g>
	</g>
	<g>
		<g>
			<path class="st0" d="M88.1,60c0.4,0.3,0.7,0.6,0.9,1.1c0.2,0.5,0.3,1,0.3,1.7S89.2,64,89,64.5c-0.2,0.5-0.5,0.8-0.9,1.1
				S87.3,66,86.8,66c-0.4,0-0.8-0.1-1.1-0.3c-0.3-0.2-0.6-0.5-0.7-0.9v3.8H84v-7.1c0-0.6,0-1.2-0.1-1.7h0.9l0.1,1.2
				c0.2-0.4,0.4-0.8,0.7-1c0.3-0.2,0.7-0.3,1.2-0.3C87.3,59.6,87.8,59.7,88.1,60z M87.9,64.5c0.3-0.4,0.5-1,0.5-1.7
				s-0.2-1.3-0.5-1.8c-0.3-0.4-0.7-0.6-1.3-0.6c-0.6,0-1,0.2-1.3,0.6c-0.3,0.4-0.4,1-0.4,1.7c0,0.8,0.1,1.3,0.4,1.8
				c0.3,0.4,0.7,0.6,1.3,0.6C87.2,65.2,87.6,65,87.9,64.5z"/>
		</g>
		<g>
			<path class="st0" d="M95.7,59.7v6.1h-0.9v-1.1c-0.2,0.4-0.4,0.7-0.7,0.9c-0.3,0.2-0.7,0.3-1.2,0.3c-0.5,0-0.9-0.1-1.3-0.4
				s-0.7-0.6-0.9-1.1s-0.3-1-0.3-1.7s0.1-1.2,0.3-1.7c0.2-0.5,0.5-0.9,0.9-1.1c0.4-0.3,0.8-0.4,1.3-0.4c0.4,0,0.8,0.1,1.1,0.3
				c0.3,0.2,0.6,0.5,0.7,0.9v-1.1H95.7z M94.3,64.5c0.3-0.4,0.4-1,0.4-1.8c0-0.8-0.1-1.3-0.4-1.7c-0.3-0.4-0.7-0.6-1.3-0.6
				c-0.6,0-1,0.2-1.3,0.6c-0.3,0.4-0.5,1-0.5,1.8s0.2,1.3,0.5,1.7c0.3,0.4,0.7,0.6,1.3,0.6C93.6,65.2,94,65,94.3,64.5z"/>
		</g>
		<g>
			<path class="st0" d="M100.5,59.7l0,0.9c-0.2-0.1-0.4-0.1-0.6-0.1c-0.5,0-0.9,0.2-1.2,0.6c-0.3,0.4-0.4,0.8-0.4,1.3v3.5h-0.9v-4.4
				c0-0.6,0-1.2-0.1-1.7h0.9l0.1,1.1c0.1-0.4,0.4-0.7,0.7-1c0.3-0.2,0.7-0.3,1.1-0.3C100.2,59.6,100.4,59.6,100.5,59.7z"/>
		</g>
		<g>
			<path class="st0" d="M106.3,59.7v6.1h-0.9v-1.1c-0.2,0.4-0.4,0.7-0.7,0.9c-0.3,0.2-0.7,0.3-1.2,0.3c-0.5,0-0.9-0.1-1.3-0.4
				c-0.4-0.3-0.7-0.6-0.9-1.1s-0.3-1-0.3-1.7s0.1-1.2,0.3-1.7c0.2-0.5,0.5-0.9,0.9-1.1c0.4-0.3,0.8-0.4,1.3-0.4
				c0.4,0,0.8,0.1,1.1,0.3c0.3,0.2,0.6,0.5,0.7,0.9v-1.1H106.3z M104.9,64.5c0.3-0.4,0.4-1,0.4-1.8c0-0.8-0.1-1.3-0.4-1.7
				c-0.3-0.4-0.7-0.6-1.3-0.6c-0.6,0-1,0.2-1.3,0.6c-0.3,0.4-0.5,1-0.5,1.8s0.2,1.3,0.5,1.7c0.3,0.4,0.7,0.6,1.3,0.6
				C104.2,65.2,104.6,65,104.9,64.5z"/>
		</g>
		<g>
			<path class="st0" d="M110.9,65.9v-9h0.9v9H110.9z"/>
		</g>
		<g>
			<path class="st0" d="M118.5,59.7v6.1h-0.9v-1.1c-0.2,0.4-0.4,0.7-0.7,0.9c-0.3,0.2-0.7,0.3-1.2,0.3c-0.5,0-0.9-0.1-1.3-0.4
				s-0.7-0.6-0.9-1.1s-0.3-1-0.3-1.7s0.1-1.2,0.3-1.7c0.2-0.5,0.5-0.9,0.9-1.1c0.4-0.3,0.8-0.4,1.3-0.4c0.4,0,0.8,0.1,1.1,0.3
				c0.3,0.2,0.6,0.5,0.7,0.9v-1.1H118.5z M117.2,64.5c0.3-0.4,0.4-1,0.4-1.8c0-0.8-0.1-1.3-0.4-1.7c-0.3-0.4-0.7-0.6-1.3-0.6
				c-0.6,0-1,0.2-1.3,0.6c-0.3,0.4-0.5,1-0.5,1.8s0.2,1.3,0.5,1.7c0.3,0.4,0.7,0.6,1.3,0.6C116.5,65.2,116.9,65,117.2,64.5z"/>
		</g>
		<g>
			<path class="st0" d="M128.8,57.2h0.9v8.7H129l-4.8-7v7h-0.9v-8.7h0.7l4.8,7V57.2z"/>
		</g>
		<g>
			<path class="st0" d="M136.2,59.7v6.1h-0.9v-1.1c-0.2,0.4-0.4,0.7-0.7,0.9c-0.3,0.2-0.7,0.3-1.1,0.3c-0.7,0-1.2-0.2-1.5-0.6
				c-0.3-0.4-0.5-1-0.5-1.8v-3.8h0.9v3.8c0,0.6,0.1,1,0.3,1.2c0.2,0.3,0.5,0.4,0.9,0.4c0.5,0,0.9-0.2,1.2-0.5
				c0.3-0.4,0.5-0.8,0.5-1.4v-3.5H136.2z"/>
		</g>
		<g>
			<path class="st0" d="M139.1,60.5v3.4c0,0.5,0.1,0.8,0.3,1c0.2,0.2,0.4,0.3,0.7,0.3c0.2,0,0.4,0,0.6-0.1v0.8
				c-0.2,0.1-0.5,0.1-0.8,0.1c-0.5,0-1-0.2-1.3-0.5c-0.3-0.3-0.5-0.8-0.5-1.5v-3.5h-1.1v-0.8h1.1v-1.6l0.9-0.4v1.9h1.6v0.8H139.1z"
				/>
		</g>
		<g>
			<path class="st0" d="M145,59.7l0,0.9c-0.2-0.1-0.4-0.1-0.6-0.1c-0.5,0-0.9,0.2-1.2,0.6c-0.3,0.4-0.4,0.8-0.4,1.3v3.5h-0.9v-4.4
				c0-0.6,0-1.2-0.1-1.7h0.9l0.1,1.1c0.1-0.4,0.4-0.7,0.7-1c0.3-0.2,0.7-0.3,1.1-0.3C144.6,59.6,144.8,59.6,145,59.7z"/>
		</g>
		<g>
			<path class="st0" d="M145.8,57.1h1.1v1.1h-1.1V57.1z M145.9,65.9v-6.1h0.9v6.1H145.9z"/>
		</g>
		<g>
			<path class="st0" d="M149.5,65.6c-0.4-0.3-0.7-0.6-0.9-1.1c-0.2-0.5-0.3-1-0.3-1.7s0.1-1.2,0.3-1.7c0.2-0.5,0.5-0.9,1-1.1
				c0.4-0.3,0.9-0.4,1.4-0.4c0.4,0,0.7,0.1,1.1,0.2c0.4,0.1,0.6,0.3,0.9,0.6l-0.3,0.7c-0.3-0.2-0.6-0.4-0.8-0.5
				c-0.3-0.1-0.5-0.2-0.8-0.2c-0.6,0-1,0.2-1.3,0.6s-0.5,1-0.5,1.8c0,0.7,0.2,1.3,0.5,1.7c0.3,0.4,0.8,0.6,1.4,0.6
				c0.3,0,0.5-0.1,0.8-0.2c0.3-0.1,0.5-0.3,0.8-0.5l0.3,0.7c-0.2,0.2-0.5,0.4-0.9,0.6c-0.4,0.1-0.7,0.2-1.1,0.2
				C150.3,66,149.9,65.8,149.5,65.6z"/>
		</g>
		<g>
			<path class="st0" d="M154,57.1h1.1v1.1H154V57.1z M154.1,65.9v-6.1h0.9v6.1H154.1z"/>
		</g>
		<g>
			<path class="st0" d="M157.6,65.6c-0.4-0.3-0.7-0.6-0.9-1.1c-0.2-0.5-0.3-1-0.3-1.7c0-0.6,0.1-1.2,0.3-1.7
				c0.2-0.5,0.5-0.9,0.9-1.1s0.9-0.4,1.4-0.4c0.5,0,1,0.1,1.4,0.4s0.7,0.6,0.9,1.1c0.2,0.5,0.3,1,0.3,1.7c0,0.6-0.1,1.2-0.3,1.7
				c-0.2,0.5-0.5,0.9-0.9,1.1S159.6,66,159,66C158.5,66,158,65.8,157.6,65.6z M160.3,64.6c0.3-0.4,0.4-1,0.4-1.8
				c0-0.7-0.2-1.3-0.5-1.7c-0.3-0.4-0.7-0.6-1.3-0.6c-0.5,0-1,0.2-1.3,0.6c-0.3,0.4-0.5,1-0.5,1.7c0,0.8,0.2,1.4,0.5,1.8
				c0.3,0.4,0.7,0.6,1.3,0.6S160,65,160.3,64.6z M159.3,59h-0.6l1.1-2.5h1L159.3,59z"/>
		</g>
		<g>
			<path class="st0" d="M167.9,62v3.9H167v-3.8c0-0.6-0.1-1-0.3-1.3c-0.2-0.3-0.5-0.4-1-0.4c-0.5,0-0.9,0.2-1.2,0.5
				c-0.3,0.4-0.5,0.8-0.5,1.4v3.5h-0.9v-4.4c0-0.6,0-1.2-0.1-1.7h0.9l0.1,1.1c0.2-0.4,0.4-0.7,0.8-0.9c0.3-0.2,0.7-0.3,1.2-0.3
				C167.2,59.6,167.9,60.4,167.9,62z"/>
		</g>
		<g>
			<path class="st0" d="M172.6,57.2h3.2c0.8,0,1.5,0.2,1.9,0.6c0.5,0.4,0.7,1,0.7,1.8c0,0.8-0.2,1.4-0.7,1.8
				c-0.5,0.4-1.1,0.7-1.9,0.7h-2.3v3.8h-0.9V57.2z M175.7,61.2c0.6,0,1-0.1,1.3-0.4c0.3-0.3,0.4-0.7,0.4-1.2c0-0.5-0.1-0.9-0.4-1.2
				c-0.3-0.3-0.7-0.4-1.3-0.4h-2.2v3.2H175.7z"/>
		</g>
		<g>
			<path class="st0" d="M184.3,62.8h-4.1c0,0.8,0.2,1.4,0.5,1.8c0.3,0.4,0.8,0.6,1.4,0.6c0.7,0,1.3-0.2,1.8-0.7l0.3,0.7
				c-0.2,0.3-0.6,0.5-0.9,0.6c-0.4,0.1-0.8,0.2-1.2,0.2c-0.9,0-1.6-0.3-2.1-0.8c-0.5-0.6-0.7-1.3-0.7-2.3c0-0.6,0.1-1.2,0.3-1.7
				c0.2-0.5,0.5-0.9,0.9-1.1c0.4-0.3,0.9-0.4,1.4-0.4c0.7,0,1.3,0.3,1.8,0.8c0.4,0.5,0.6,1.3,0.6,2.2V62.8z M180.8,60.8
				c-0.3,0.3-0.5,0.7-0.6,1.3h3.3c0-0.6-0.2-1-0.5-1.3c-0.3-0.3-0.6-0.5-1.1-0.5S181.1,60.5,180.8,60.8z"/>
		</g>
		<g>
			<path class="st0" d="M188.8,59.7l0,0.9c-0.2-0.1-0.4-0.1-0.6-0.1c-0.5,0-0.9,0.2-1.2,0.6c-0.3,0.4-0.4,0.8-0.4,1.3v3.5h-0.9v-4.4
				c0-0.6,0-1.2-0.1-1.7h0.9l0.1,1.1c0.1-0.4,0.4-0.7,0.7-1c0.3-0.2,0.7-0.3,1.1-0.3C188.5,59.6,188.6,59.6,188.8,59.7z"/>
		</g>
		<g>
			<path class="st0" d="M189.3,65.2l0.3-0.7c0.3,0.3,0.6,0.4,0.9,0.6c0.3,0.1,0.7,0.2,1,0.2c0.4,0,0.7-0.1,1-0.2
				c0.2-0.2,0.3-0.4,0.3-0.7c0-0.2-0.1-0.4-0.2-0.6c-0.1-0.1-0.4-0.3-0.7-0.3l-0.9-0.2c-0.5-0.1-0.8-0.3-1.1-0.6
				c-0.3-0.3-0.4-0.6-0.4-1.1c0-0.5,0.2-1,0.6-1.3c0.4-0.3,0.9-0.5,1.6-0.5c0.4,0,0.8,0.1,1.1,0.2c0.3,0.1,0.6,0.3,0.9,0.6l-0.3,0.7
				c-0.5-0.5-1.1-0.7-1.7-0.7c-0.4,0-0.7,0.1-0.9,0.2c-0.2,0.2-0.3,0.4-0.3,0.7c0,0.3,0.1,0.5,0.2,0.6c0.1,0.1,0.4,0.3,0.7,0.3
				l0.9,0.3c0.5,0.1,0.9,0.3,1.2,0.6c0.3,0.3,0.4,0.6,0.4,1.1c0,0.5-0.2,1-0.6,1.3c-0.4,0.3-0.9,0.5-1.6,0.5
				C190.6,66,189.9,65.7,189.3,65.2z"/>
		</g>
		<g>
			<path class="st0" d="M196.1,65.6c-0.4-0.3-0.7-0.6-0.9-1.1c-0.2-0.5-0.3-1-0.3-1.7c0-0.6,0.1-1.2,0.3-1.7
				c0.2-0.5,0.5-0.9,0.9-1.1s0.9-0.4,1.4-0.4c0.5,0,1,0.1,1.4,0.4s0.7,0.6,0.9,1.1c0.2,0.5,0.3,1,0.3,1.7c0,0.6-0.1,1.2-0.3,1.7
				c-0.2,0.5-0.5,0.9-0.9,1.1S198,66,197.5,66C197,66,196.5,65.8,196.1,65.6z M198.8,64.6c0.3-0.4,0.4-1,0.4-1.8
				c0-0.7-0.2-1.3-0.5-1.7c-0.3-0.4-0.7-0.6-1.3-0.6c-0.5,0-1,0.2-1.3,0.6c-0.3,0.4-0.5,1-0.5,1.7c0,0.8,0.2,1.4,0.5,1.8
				c0.3,0.4,0.7,0.6,1.3,0.6S198.5,65,198.8,64.6z"/>
		</g>
		<g>
			<path class="st0" d="M206.4,62v3.9h-0.9v-3.8c0-0.6-0.1-1-0.3-1.3c-0.2-0.3-0.5-0.4-1-0.4c-0.5,0-0.9,0.2-1.2,0.5
				c-0.3,0.4-0.5,0.8-0.5,1.4v3.5h-0.9v-4.4c0-0.6,0-1.2-0.1-1.7h0.9l0.1,1.1c0.2-0.4,0.4-0.7,0.8-0.9c0.3-0.2,0.7-0.3,1.2-0.3
				C205.7,59.6,206.4,60.4,206.4,62z"/>
		</g>
		<g>
			<path class="st0" d="M213,59.7v6.1h-0.9v-1.1c-0.2,0.4-0.4,0.7-0.7,0.9c-0.3,0.2-0.7,0.3-1.2,0.3c-0.5,0-0.9-0.1-1.3-0.4
				c-0.4-0.3-0.7-0.6-0.9-1.1s-0.3-1-0.3-1.7s0.1-1.2,0.3-1.7c0.2-0.5,0.5-0.9,0.9-1.1c0.4-0.3,0.8-0.4,1.3-0.4
				c0.4,0,0.8,0.1,1.1,0.3c0.3,0.2,0.6,0.5,0.7,0.9v-1.1H213z M211.7,64.5c0.3-0.4,0.4-1,0.4-1.8c0-0.8-0.1-1.3-0.4-1.7
				c-0.3-0.4-0.7-0.6-1.3-0.6c-0.6,0-1,0.2-1.3,0.6c-0.3,0.4-0.5,1-0.5,1.8s0.2,1.3,0.5,1.7c0.3,0.4,0.7,0.6,1.3,0.6
				C211,65.2,211.4,65,211.7,64.5z"/>
		</g>
		<g>
			<path class="st0" d="M214.8,65.9v-9h0.9v9H214.8z"/>
		</g>
		<g>
			<path class="st0" d="M217.3,57.1h1.1v1.1h-1.1V57.1z M217.4,65.9v-6.1h0.9v6.1H217.4z"/>
		</g>
		<g>
			<path class="st0" d="M220.9,65.1h3.6v0.8h-4.7v-0.7l3.5-4.7h-3.4v-0.8h4.5v0.7L220.9,65.1z"/>
		</g>
		<g>
			<path class="st0" d="M230.7,59.7v6.1h-0.9v-1.1c-0.2,0.4-0.4,0.7-0.7,0.9c-0.3,0.2-0.7,0.3-1.2,0.3c-0.5,0-0.9-0.1-1.3-0.4
				c-0.4-0.3-0.7-0.6-0.9-1.1s-0.3-1-0.3-1.7s0.1-1.2,0.3-1.7c0.2-0.5,0.5-0.9,0.9-1.1c0.4-0.3,0.8-0.4,1.3-0.4
				c0.4,0,0.8,0.1,1.1,0.3c0.3,0.2,0.6,0.5,0.7,0.9v-1.1H230.7z M229.3,64.5c0.3-0.4,0.4-1,0.4-1.8c0-0.8-0.1-1.3-0.4-1.7
				c-0.3-0.4-0.7-0.6-1.3-0.6c-0.6,0-1,0.2-1.3,0.6c-0.3,0.4-0.5,1-0.5,1.8s0.2,1.3,0.5,1.7c0.3,0.4,0.7,0.6,1.3,0.6
				C228.6,65.2,229,65,229.3,64.5z"/>
		</g>
		<g>
			<path class="st0" d="M237.4,56.9v9h-0.9v-1.1c-0.2,0.4-0.4,0.7-0.7,0.9c-0.3,0.2-0.7,0.3-1.2,0.3c-0.5,0-0.9-0.1-1.3-0.4
				s-0.7-0.6-0.9-1.1c-0.2-0.5-0.3-1-0.3-1.7c0-0.6,0.1-1.2,0.3-1.7s0.5-0.8,0.9-1.1c0.4-0.3,0.8-0.4,1.3-0.4c0.4,0,0.8,0.1,1.1,0.3
				c0.3,0.2,0.6,0.5,0.7,0.9v-3.9H237.4z M236,64.5c0.3-0.4,0.4-1,0.4-1.8c0-0.7-0.1-1.3-0.4-1.7c-0.3-0.4-0.7-0.6-1.3-0.6
				c-0.6,0-1,0.2-1.3,0.6c-0.3,0.4-0.5,1-0.5,1.7c0,0.8,0.2,1.3,0.5,1.8c0.3,0.4,0.7,0.6,1.3,0.6C235.3,65.2,235.7,65,236,64.5z"/>
		</g>
		<g>
			<path class="st0" d="M244.1,59.7v6.1h-0.9v-1.1c-0.2,0.4-0.4,0.7-0.7,0.9c-0.3,0.2-0.7,0.3-1.2,0.3c-0.5,0-0.9-0.1-1.3-0.4
				s-0.7-0.6-0.9-1.1s-0.3-1-0.3-1.7s0.1-1.2,0.3-1.7c0.2-0.5,0.5-0.9,0.9-1.1c0.4-0.3,0.8-0.4,1.3-0.4c0.4,0,0.8,0.1,1.1,0.3
				c0.3,0.2,0.6,0.5,0.7,0.9v-1.1H244.1z M242.7,64.5c0.3-0.4,0.4-1,0.4-1.8c0-0.8-0.1-1.3-0.4-1.7c-0.3-0.4-0.7-0.6-1.3-0.6
				c-0.6,0-1,0.2-1.3,0.6c-0.3,0.4-0.5,1-0.5,1.8s0.2,1.3,0.5,1.7c0.3,0.4,0.7,0.6,1.3,0.6C242,65.2,242.4,65,242.7,64.5z"/>
		</g>
	</g>
	<g>
		<g>
			<path class="st1" d="M112,27.7c0.6,0,1.4-0.2,1.6-0.2c0.1-0.3,0.4-1.1,0.5-1.7l-0.4-0.1c-0.4,1-0.9,1.5-1.6,1.5
				c-0.9,0-1.7-1.1-1.7-2.7c0-1.3,0.6-2.5,1.7-2.5c0.6,0,1.1,0.3,1.4,1.4l0.4-0.1c0-0.7-0.1-1.1-0.2-1.6c-0.2-0.1-0.8-0.2-1.5-0.2
				c-2,0-3.4,1.3-3.4,3.2C108.8,26.2,109.7,27.7,112,27.7 M121.1,26l-0.4-0.1c-0.1,0.4-0.3,0.8-0.4,0.9c-0.2,0.2-0.6,0.3-0.9,0.3
				c-0.3,0-0.5,0-0.6-0.1c-0.2-0.1-0.2-0.3-0.2-0.8v-1.5h0.4c0.7,0,0.8,0.1,0.9,0.9h0.4v-2.1h-0.4c-0.1,0.7-0.1,0.7-0.9,0.7h-0.4
				v-1.8c0-0.3,0-0.3,0.3-0.3h0.1c0.5,0,0.7,0.1,0.9,0.2c0.1,0.1,0.2,0.4,0.3,0.9l0.4,0c0-0.7-0.1-1.3-0.1-1.5h-4.1v0.4
				c0.6,0.1,0.6,0.1,0.6,1.1v3c0,1-0.1,1-0.7,1.1v0.4h4.4C120.9,27.3,121.1,26.4,121.1,26 M124.6,23.4V25c0,1,0,1.4-0.1,1.7
				c0,0.3-0.3,0.4-0.6,0.5v0.4h2.1v-0.4c-0.6,0-0.8-0.1-0.8-0.5c0-0.3-0.1-0.8-0.1-1.7v-1.7h0l3.2,4.3h0.7v-3.4c0-1,0-1.4,0.1-1.7
				c0-0.3,0.3-0.4,0.7-0.5v-0.4h-2.2v0.4c0.6,0,0.8,0.1,0.9,0.5c0,0.3,0.1,0.8,0.1,1.7v1.2h0l-2.9-3.8h-1.9v0.4
				c0.3,0,0.5,0.1,0.7,0.3C124.5,22.6,124.6,22.7,124.6,23.4 M132.4,22.4c0.1-0.2,0.4-0.3,0.9-0.3h0.1v4c0,1-0.1,1-0.8,1.1v0.4h3
				v-0.4c-0.7-0.1-0.8-0.1-0.8-1.1v-4h0.2c0.4,0,0.7,0.1,0.8,0.2c0.1,0.2,0.2,0.4,0.4,0.9l0.4,0c0-0.7-0.1-1.4-0.1-1.8h-0.3
				c-0.1,0.2-0.2,0.2-0.4,0.2h-3.4c-0.2,0-0.3,0-0.5-0.2h-0.3c0,0.5-0.1,1.1-0.1,1.8h0.4C132.2,22.8,132.3,22.6,132.4,22.4
				 M141,27.2c-0.6-0.1-0.7-0.1-0.7-1.1v-1.1h0.1c0.2,0,0.3,0.1,0.4,0.3c0.2,0.5,0.5,1.1,0.7,1.5c0.3,0.5,0.6,0.8,1.9,0.8l0.4,0
				l0-0.3c-0.2-0.1-0.4-0.2-0.5-0.4c-0.1-0.2-0.3-0.5-0.6-1c-0.2-0.4-0.6-1-0.7-1.3c0.6-0.3,1.1-0.7,1.1-1.5c0-0.5-0.3-0.9-0.6-1.2
				c-0.3-0.2-0.8-0.3-1.5-0.3h-2.7v0.4c0.6,0.1,0.7,0.1,0.7,1.1v3c0,1-0.1,1-0.7,1.1v0.4h2.7V27.2z M140.3,22.5c0-0.4,0-0.4,0.4-0.4
				c0.3,0,0.9,0.3,0.9,1.2c0,0.4-0.1,0.9-0.5,1.2c-0.2,0.1-0.4,0.2-0.6,0.2h-0.1V22.5z M146.1,26.7l0.3-0.9h1.4l0.3,0.9
				c0.1,0.3,0.1,0.4-0.2,0.5l-0.3,0v0.4h2.7v-0.4c-0.4-0.1-0.6-0.1-0.9-0.9c-0.3-0.9-0.7-2-1.1-3.1l-0.6-1.7l-0.6,0.1l-1.7,4.7
				c-0.3,0.8-0.4,0.8-0.9,0.9v0.4h2v-0.4l-0.2,0C146,27.2,146,27.1,146.1,26.7 M147.1,23.5L147.1,23.5l0.6,1.7h-1.1L147.1,23.5z
				 M156.7,26l-0.4-0.1c-0.1,0.5-0.3,0.7-0.4,0.9c-0.2,0.2-0.5,0.3-0.8,0.3c-0.3,0-0.5,0-0.6-0.1c-0.2-0.1-0.2-0.3-0.2-0.8v-3.1
				c0-1,0.1-1,0.7-1.1v-0.4h-2.8v0.4c0.6,0.1,0.6,0.1,0.6,1.1v3c0,1-0.1,1-0.7,1.1v0.4h4.3C156.4,27.3,156.6,26.4,156.7,26
				 M166.3,26l-0.4-0.1c-0.1,0.5-0.3,0.7-0.4,0.9c-0.2,0.2-0.5,0.3-0.8,0.3c-0.3,0-0.5,0-0.6-0.1c-0.2-0.1-0.2-0.3-0.2-0.8v-3.1
				c0-1,0.1-1,0.7-1.1v-0.4h-2.8v0.4c0.6,0.1,0.6,0.1,0.6,1.1v3c0,1-0.1,1-0.7,1.1v0.4h4.3C166,27.3,166.2,26.4,166.3,26 M172.8,26
				l-0.4-0.1c-0.1,0.4-0.3,0.8-0.4,0.9c-0.2,0.2-0.6,0.3-0.9,0.3c-0.3,0-0.5,0-0.6-0.1c-0.2-0.1-0.2-0.3-0.2-0.8v-1.5h0.4
				c0.7,0,0.8,0.1,0.9,0.9h0.4v-2.1h-0.4c-0.1,0.7-0.1,0.7-0.9,0.7h-0.4v-1.8c0-0.3,0-0.3,0.3-0.3h0.2c0.5,0,0.7,0.1,0.9,0.2
				c0.1,0.1,0.2,0.4,0.3,0.9l0.4,0c0-0.7-0.1-1.3-0.1-1.5h-4.1v0.4c0.6,0.1,0.6,0.1,0.6,1.1v3c0,1-0.1,1-0.7,1.1v0.4h4.4
				C172.5,27.3,172.7,26.4,172.8,26 M178.4,27.7c0.6,0,1.4-0.2,1.6-0.2c0.1-0.3,0.3-1.1,0.5-1.7l-0.4-0.1c-0.4,1-0.9,1.5-1.6,1.5
				c-0.9,0-1.7-1.1-1.7-2.7c0-1.3,0.6-2.5,1.7-2.5c0.6,0,1.1,0.3,1.4,1.4l0.4-0.1c-0.1-0.7-0.1-1.1-0.2-1.6
				c-0.2-0.1-0.8-0.2-1.5-0.2c-2,0-3.4,1.3-3.4,3.2C175.1,26.2,176,27.7,178.4,27.7 M183.5,23.1v3c0,1-0.1,1-0.7,1.1v0.4h2.8v-0.4
				c-0.6-0.1-0.6-0.1-0.6-1.1v-1.4h1.8v1.4c0,1-0.1,1-0.7,1.1v0.4h2.8v-0.4c-0.6-0.1-0.7-0.1-0.7-1.1v-3c0-1,0.1-1,0.7-1.1v-0.4
				h-2.8v0.4c0.5,0.1,0.6,0.1,0.6,1.1v1.1H185v-1.1c0-1,0.1-1,0.6-1.1v-0.4h-2.8v0.4C183.4,22.1,183.5,22.2,183.5,23.1 M196.1,26
				l-0.4-0.1c-0.1,0.4-0.3,0.8-0.4,0.9c-0.2,0.2-0.6,0.3-0.9,0.3c-0.3,0-0.5,0-0.6-0.1c-0.1-0.1-0.2-0.3-0.2-0.8v-1.5h0.4
				c0.7,0,0.8,0.1,0.9,0.9h0.4v-2.1h-0.4c-0.1,0.7-0.1,0.7-0.9,0.7h-0.4v-1.8c0-0.3,0-0.3,0.4-0.3h0.1c0.5,0,0.7,0.1,0.9,0.2
				c0.1,0.1,0.2,0.4,0.3,0.9l0.4,0c0-0.7-0.1-1.3-0.1-1.5h-4.1v0.4c0.6,0.1,0.7,0.1,0.7,1.1v3c0,1-0.1,1-0.7,1.1v0.4h4.4
				C195.9,27.3,196.1,26.4,196.1,26 M201.2,27.2c-0.6-0.1-0.7-0.1-0.7-1.1v-1.1h0.1c0.2,0,0.3,0.1,0.4,0.3c0.2,0.5,0.5,1.1,0.7,1.5
				c0.4,0.5,0.6,0.8,1.9,0.8l0.4,0l0-0.3c-0.2-0.1-0.4-0.2-0.5-0.4c-0.1-0.2-0.3-0.5-0.6-1c-0.3-0.4-0.6-1-0.7-1.3
				c0.6-0.3,1.1-0.7,1.1-1.5c0-0.5-0.3-0.9-0.6-1.2c-0.3-0.2-0.8-0.3-1.5-0.3h-2.7v0.4c0.6,0.1,0.6,0.1,0.6,1.1v3c0,1-0.1,1-0.7,1.1
				v0.4h2.7V27.2z M200.5,22.5c0-0.4,0-0.4,0.4-0.4c0.3,0,0.9,0.3,0.9,1.2c0,0.4-0.1,0.9-0.5,1.2c-0.2,0.1-0.4,0.2-0.6,0.2h-0.1
				V22.5z M207.3,27.2l-0.3,0c-0.4,0-0.4-0.1-0.3-0.5l0.3-0.9h1.4l0.3,0.9c0.1,0.3,0.1,0.4-0.2,0.5l-0.3,0v0.4h2.7v-0.4
				c-0.4-0.1-0.6-0.1-0.9-0.9c-0.3-0.9-0.7-2-1.1-3.1l-0.6-1.7l-0.6,0.1l-1.7,4.7c-0.3,0.8-0.4,0.8-0.9,0.9v0.4h2V27.2z M207.7,23.5
				L207.7,23.5l0.6,1.7h-1.1L207.7,23.5z M104.9,49.1c-1.2-0.2-1.4-0.7-1.6-1.2c-0.4-0.8-1.5-4.9-4.1-13.7c-2.7-9-3.2-12.1-4.4-12.1
				c-0.9,0-1.5-0.1-2,1.6c-1.4,4.3-2,6.4-3.2,10.6c-1.3,4.4-3.2,11.4-3.2,11.4c-0.8,2.8-1.6,3-2,3.2c-0.7,0.2-1.3,0.2-1.3,1.2
				c0,1,1.1,0.9,1.3,0.9c0.4,0,1.5-0.1,3-0.1c1,0,2.2,0.1,2.5,0.1c0.6,0,1.2,0,1.2-0.9c0-0.8-0.7-1.1-1.7-1.2
				c-0.8-0.3-1.2-0.9-1.3-1.7c0-0.3,0-0.7,0.1-1.2c0.2-1.3,0.3-1.3,0.6-2.7c0.1-0.6,0.3-1.7,0.9-1.7h4.9c1,0,0.9,0.1,1.3,1.6
				c0.6,2.2,1.2,4.2,1.2,4.2c0.1,0.4,0.1,0.7,0.1,0.8c0,0.6-0.4,0.7-0.9,0.8c-0.6,0.2-1.3,0.3-1.3,1c0,1.1,0.8,1,1.1,1
				c0.8,0,3.1-0.1,3.8-0.1c1.9,0,4.1,0.1,4.8,0.1c0.4,0,1-0.1,1-0.9C105.8,49.3,105.2,49.2,104.9,49.1 M94.7,39
				c0,0.3-0.2,0.4-0.6,0.4h-3.7c-0.4,0-0.4-0.2-0.4-0.4c0-0.2,0.1-0.4,0.2-0.8l2.1-7.1l2.2,6.9C94.7,38.6,94.7,38.8,94.7,39
				 M114.7,39c-2.3-1.3-3-1.7-3-3c0-1.1,0.6-1.7,1.3-1.7c1,0,1.3,1,1.6,1.6c0.5,1.4,0.7,1.8,1.2,1.8c0.8,0,0.8-0.9,0.8-1.6l-0.1-2.3
				c0-0.5-0.1-0.7-0.4-0.8c-1.4-0.6-2.6-0.7-3.6-0.7c-0.8,0-5.7,0.2-5.7,5.9c0,3.3,1.9,4.7,3.3,5.7c1.7,1.2,2.6,1.7,2.6,3.4
				c0,1.2-0.7,1.9-2,1.9c-1.4,0-1.7-0.9-2-2.2c-0.2-1-0.5-2.5-1.3-2.5c-0.9,0-0.9,1.5-0.9,1.8v2.3c0,0.9,0.2,1.2,0.6,1.5
				c1.6,1,3.7,1,4,1c3.6,0,6.1-2.7,6.1-6.6C117.4,41,115.5,39.5,114.7,39 M130.5,31.9c-0.4,0-0.5,0.2-1.1,0.9
				c-0.3,0.5-0.5,0.5-1.4,0.5h-7c-1,0-1-0.2-1.2-0.5c-0.5-0.7-0.6-0.8-1-0.8c-0.6,0-0.8,0.9-1,1.7l-0.6,2.7c0,0.2-0.1,0.7-0.1,0.9
				c0,0.5,0.2,0.8,0.7,0.8c0.5,0,0.8-0.5,1.6-1.7c0.7-1,0.4-1.1,1.9-1.1c0.5,0,0.5,0.1,0.5,1v10.1c0,2.1,0.1,2.2-0.9,2.8
				c-0.4,0.2-1.1,0.1-1.1,1c0,0.8,0.8,0.8,1,0.8h6.6c0.2,0,0.9,0,0.9-0.8c0-0.7-0.4-0.8-0.9-0.9c-0.8-0.2-0.9-0.7-0.9-2.8V36.4
				c0-1,0-1,0.7-1h0.7c0.9,0,0.9,0.3,1.3,1.4c0.4,0.9,0.5,1.4,1,1.4c0.6,0,0.8-0.5,0.8-1.4v-3.3C131.1,32.7,131.1,31.9,130.5,31.9
				 M145.7,32.9c-0.2,0-1.1,0.1-1.9,0.1c-0.8,0-1.6-0.1-1.8-0.1c-0.4,0-0.8,0.2-0.8,0.8c0,0.7,0.6,0.7,0.9,0.8c0.7,0.1,1,0.5,1,2.3
				v8.2c0,1.5-0.1,4.3-2.9,4.3c-2.5,0-2.5-3.1-2.5-4v-7.9c0-2.1,0.3-2.6,0.9-2.8c0.4-0.1,1-0.1,1-0.8c0-0.7-0.6-0.7-0.8-0.7
				c-0.3,0-2,0.1-3.5,0.1c-1.7,0-2.8-0.1-3.3-0.1c-0.2,0-0.7,0.1-0.7,0.8c0,0.7,0.6,0.6,1,0.8c0.7,0.4,0.7,0.7,0.7,2.9v7.7
				c0,5.5,4.2,6.1,6,6.1c5.4,0,5.5-4,5.5-6.3v-7.3c0-2.4,0.1-2.6,0.9-2.9c0.6-0.2,0.8-0.5,0.8-1C146.4,32.9,146,32.9,145.7,32.9
				 M162.1,49.5c-0.7-0.2-1-0.9-1.4-1.7l-1.8-4.3c-0.2-0.5-0.2-0.7,0-0.9c0.3-0.2,0.5-0.4,1-0.9c0.6-0.6,1-1.6,1-3.5
				c0-2.5-1.2-5-4.5-4.9c-2.2,0-3.3,0.1-5.3,0.1c-2,0-3-0.1-3.4-0.1c-0.2,0-0.7,0.1-0.7,0.8c0,0.7,0.5,0.7,0.9,0.8
				c0.7,0.2,0.9,1,0.9,2.9v8.7c0,2.3-0.2,2.6-0.9,2.8c-0.4,0.1-0.9,0.3-0.9,1c0,0.8,0.5,0.8,0.7,0.8h5.8c1.3,0,1.6,0,1.6-0.7
				c0-0.5-0.3-0.8-0.8-1.1c-0.5-0.3-0.6-0.7-0.6-1.7v-3.1c0-0.6-0.1-0.7,0.1-0.8c0.2,0,0.3,0.5,0.6,1.2c0,0,1,2.6,1.9,5
				c0.2,0.5,0.4,1.1,0.8,1.1c4.6,0,5,0.1,5.1,0.1c0.2,0,0.7,0,0.7-0.8C162.8,49.8,162.6,49.6,162.1,49.5 M153.9,41.6
				c-0.5,0-0.4-0.2-0.4-1v-3.9c0-0.8,0-1.3,0.8-1.3c1.2,0,1.6,1.7,1.6,2.9C155.9,40.6,155.2,41.6,153.9,41.6 M170.7,35
				c0.4,0,1-0.2,1-0.9c0-0.8-0.5-0.8-0.7-0.8c-0.3,0-1.2,0.1-3.2,0.1c-2,0-3.4-0.1-3.8-0.1c-0.2,0-0.7,0-0.7,0.8
				c0,0.7,0.5,0.9,1,0.9c0.7,0.1,0.9,0.6,0.9,3.1v8.6c0,2.2-0.1,2.6-0.9,2.8c-0.4,0.1-1,0.2-1,0.9c0,0.8,0.5,0.8,0.7,0.8h7
				c0.2,0,0.7,0,0.7-0.8c0-0.7-0.5-0.8-1-0.9c-0.8-0.2-0.9-0.6-0.9-2.9V38C169.8,35.5,169.9,35.1,170.7,35 M185.9,49.6
				c-0.4-0.2-0.4-0.3-0.6-0.5c-0.3-0.5-1.1-3.1-3.1-10.5c-0.2-0.8-1.2-5-1.6-5.5c-0.2-0.5-1.3-0.5-1.6-0.5c-0.6,0-1.9,0.1-2,0.9
				c-0.1,0.5-0.3,1.3-0.4,1.8l-3.2,12c-0.5,2-0.7,2-1,2.2c-0.4,0.2-0.8,0.3-0.8,0.9c0,0.7,0.5,0.7,0.7,0.7h3.7c0.2,0,0.7,0,0.7-0.7
				c0-0.6-0.3-0.8-0.8-0.9c-0.5-0.2-0.7-0.5-0.7-1.2c0-0.1,0-0.3,0.1-0.5l0.2-0.9c0.1-0.8,0.3-0.8,0.7-0.8h2.4c0.7,0,0.6,0,0.7,0.7
				l0.4,1.5c0.1,0.3,0.1,0.5,0.1,0.6c0,0.4-0.2,0.6-0.5,0.6c-0.5,0.1-0.9,0.2-0.9,0.9c0,0.8,0.7,0.8,0.9,0.8h6.3
				c0.3,0,0.7-0.1,0.7-0.7C186.5,49.8,186.1,49.6,185.9,49.6 M178.5,43.9h-1.9c-0.2,0-0.3-0.1-0.3-0.2c0-0.1,0-0.3,0.1-0.7l1.1-4.1
				l1,3.6c0.1,0.4,0.3,0.9,0.3,1C178.7,43.7,178.8,43.9,178.5,43.9 M202.9,33.9c0-0.8-0.7-0.9-1-0.9c-0.2,0-0.9,0.1-1.6,0.1
				c-1.1,0-1.5-0.1-1.9-0.1c-0.3,0-0.8,0-0.8,0.7c0,0.6,0.4,0.9,0.8,0.9c0.8,0.1,1,0.7,1,2.1v6.7l-5.2-9.9c-0.3-0.5-0.4-0.5-0.8-0.5
				c-0.2,0-0.6,0.1-1.8,0.1c-1.7,0-2.7-0.1-3.4-0.1c-0.7,0-1.3,0-1.3,0.7c0,0.8,0.2,0.7,0.8,0.9c0.6,0.2,0.9,0.9,0.9,1.5v10.6
				c0,1.8-0.3,2.1-1,2.3c-0.6,0.1-1,0.3-1,0.9c0,0.8,0.6,0.8,0.7,0.8h4.3c0.3,0,0.9,0,0.9-0.8c0-0.7-0.4-0.8-1-0.9
				c-0.9-0.2-1.2-0.9-1.2-2.4v-9.4l7.4,13c0.3,0.5,0.3,0.6,0.8,0.6h1.9c0.5,0,0.5-0.4,0.5-1.1V36.7c0-1,0.1-1.6,0.7-1.8
				C202.4,34.6,202.9,34.6,202.9,33.9 M216,49.6c-0.4-0.2-0.4-0.3-0.6-0.5c-0.3-0.5-1.1-3.1-3.1-10.5c-0.2-0.8-1.2-5-1.6-5.5
				c-0.2-0.5-1.3-0.5-1.6-0.5c-0.6,0-1.9,0.1-2,0.9c-0.1,0.5-0.3,1.3-0.4,1.8l-3.2,12c-0.5,2-0.7,2-1,2.2c-0.4,0.2-0.8,0.3-0.8,0.9
				c0,0.7,0.5,0.7,0.7,0.7c0.3,0,1-0.1,2-0.1c0.7,0,1.5,0.1,1.7,0.1c0.2,0,0.7,0,0.7-0.7c0-0.6-0.3-0.8-0.8-0.9
				c-0.5-0.2-0.7-0.5-0.7-1.2c0-0.1,0-0.3,0.1-0.5l0.2-0.9c0.1-0.8,0.3-0.8,0.7-0.8h2.4c0.7,0,0.6,0,0.7,0.7l0.4,1.5
				c0.1,0.3,0.1,0.5,0.1,0.6c0,0.4-0.2,0.6-0.5,0.6c-0.5,0.1-0.9,0.2-0.9,0.9c0,0.8,0.7,0.8,0.9,0.8c0.5,0,2.9-0.1,3.4-0.1
				c1.3,0,2.4,0.1,2.9,0.1c0.3,0,0.8-0.1,0.8-0.7C216.5,49.8,216.1,49.6,216,49.6 M208.5,43.9h-1.9c-0.2,0-0.3-0.1-0.3-0.2
				c0-0.1,0-0.3,0.1-0.7l1.1-4.1l1,3.6c0.1,0.4,0.3,0.9,0.3,1C208.7,43.7,208.8,43.9,208.5,43.9"/>
		</g>
	</g>
</g>
</svg>
