<svg id="logo-39ytu-cesar" xmlns="http://www.w3.org/2000/svg" viewBox="0 0 141.902 58.634">
  <defs>
    <style>
      .cls-1 {
        fill: #57b6b2;
      }

      .cls-2 {
        fill: #fff;
      }
    </style>
  </defs>
  <g id="Capa_1" data-name="Capa 1">
    <rect id="Rectangle_320" data-name="Rectangle 320" class="cls-1" width="141.902" height="58.634" rx="29.317"/>
    <circle id="Ellipse_469" data-name="Ellipse 469" class="cls-2" cx="23.888" cy="23.888" r="23.888" transform="translate(88.799 5.037)"/>
    <path id="Path_1675" data-name="Path 1675" class="cls-2" d="M61.11,82.277a19.843,19.843,0,0,0,5.712.837,8.376,8.376,0,0,0,5.168-1.36,4.845,4.845,0,0,0,1.775-4.095,4.264,4.264,0,0,0-1.7-3.759,8.928,8.928,0,0,0-5.1-1.188H65.541V70.247h.986a6.711,6.711,0,0,0,4.6-1.462,5.141,5.141,0,0,0,1.647-4.074,4.238,4.238,0,0,0-1.132-3.162,4.858,4.858,0,0,0-3.548-1.1,10.179,10.179,0,0,0-3.94.74v3.2H61.6v-4.68A14.125,14.125,0,0,1,68.3,58a7.993,7.993,0,0,1,5.557,1.816,6.058,6.058,0,0,1,2.018,4.718q0,4.37-4.727,6.534v.094q5.724,1.226,5.724,6.455a7.6,7.6,0,0,1-.67,3.2,7.04,7.04,0,0,1-1.945,2.515,9.266,9.266,0,0,1-3.2,1.656,14.99,14.99,0,0,1-4.387.585,19.506,19.506,0,0,1-5.557-.772Z" transform="translate(-43.236 -41.035)"/>
    <path id="Path_1676" data-name="Path 1676" class="cls-2" d="M127.051,82.862a17.933,17.933,0,0,0,2.709.246A8.334,8.334,0,0,0,136.7,80.13q2.363-2.978,2.51-8.482l-.1-.05a8.559,8.559,0,0,1-6.353,2.662,7.447,7.447,0,0,1-5.54-2.167,7.532,7.532,0,0,1-2.144-5.516,8.578,8.578,0,0,1,2.317-6.107A7.937,7.937,0,0,1,133.454,58a7.605,7.605,0,0,1,6.52,3.217q2.34,3.217,2.34,9.184,0,6.994-3.349,11.083a11.272,11.272,0,0,1-9.208,4.095,17.257,17.257,0,0,1-2.709-.246Zm12.162-13.7a13.881,13.881,0,0,0-1.7-6.277,4.615,4.615,0,0,0-4.162-2.439,4.914,4.914,0,0,0-3.718,1.527,6.784,6.784,0,0,0-.108,8.275,4.774,4.774,0,0,0,3.767,1.527A8.156,8.156,0,0,0,139.213,69.162Z" transform="translate(-88.495 -41.035)"/>
    <path id="Path_1677" data-name="Path 1677" class="cls-2" d="M232.743,72.193l-6.353,17.974a33.084,33.084,0,0,1-1.255,3.153,12.015,12.015,0,0,1-1.527,2.486,5.674,5.674,0,0,1-2.047,1.6,6.657,6.657,0,0,1-2.805.541,11.017,11.017,0,0,1-1.775-.146V95.092a11.58,11.58,0,0,0,1.822.146,5.7,5.7,0,0,0,1.462-.173,3.033,3.033,0,0,0,1.255-.687,6.142,6.142,0,0,0,1.231-1.726,26.083,26.083,0,0,0,1.439-3.469h-.249l-5.727-16.991H216V69.73h7.386v2.463h-2.167l4.285,13.2h.1l4.481-13.2h-2.267V69.73h7.388v2.463Z" transform="translate(-152.821 -49.334)"/>
    <path id="Path_1678" data-name="Path 1678" class="cls-1" d="M344.09,79.592a4.835,4.835,0,0,1-3.349-1.106,4.156,4.156,0,0,1-1.228-3.276V62.358H337.05V59.9h2.463V55.464l2.954-.544v4.972H346.9v2.463h-4.431V74.716a2.505,2.505,0,0,0,.564,1.919,2.2,2.2,0,0,0,1.5.494,5.265,5.265,0,0,0,2.363-.585v2.413a6.435,6.435,0,0,1-2.808.635Z" transform="translate(-238.464 -38.856)"/>
    <path id="Path_1679" data-name="Path 1679" class="cls-1" d="M390.747,55.34h-2.463V52.877H393.7V69.619h2.463v2.463h-5.168l-.146-2.118h-.1a6.806,6.806,0,0,1-5.467,2.609,4.826,4.826,0,0,1-5.367-5.367V55.34H377.45V52.877h5.426V66.715a3.356,3.356,0,0,0,.863,2.682,3.551,3.551,0,0,0,2.34.717,5.689,5.689,0,0,0,4.68-2.317ZM387.3,45h3.446l-3.94,5.908h-2.264Z" transform="translate(-267.047 -31.838)"/>
  </g>
</svg>
