<?xml version="1.0" encoding="utf-8"?>
<!-- Generator: Adobe Illustrator 21.1.0, SVG Export Plug-In . SVG Version: 6.00 Build 0)  -->
<svg version="1.1" id="Group_599" xmlns="http://www.w3.org/2000/svg" xmlns:xlink="http://www.w3.org/1999/xlink" x="0px" y="0px"
	 viewBox="0 0 244.3 75" style="enable-background:new 0 0 244.3 75;" xml:space="preserve">
<style type="text/css">
	.st0{fill:#6699C0;}
	.st1{fill:#B6986B;}
	.st2{fill:#E4C860;}
	.st3{fill:#C4C5C5;}
	.st4{fill:#961E2A;}
	.st5{fill:#CF8F25;}
	.st6{fill:#8AA93A;}
	.st7{fill:#2A68AD;}
	.st8{fill:#003DA6;}
	.st9{fill-rule:evenodd;clip-rule:evenodd;fill:#003DA6;}
</style>
<g>
	<g>
		<g>
			<polygon class="st0" points="44.7,60.4 24.8,38.6 4.7,60.5 			"/>
		</g>
	</g>
	<g>
		<g>
			<polygon class="st1" points="37.4,50.2 46.5,60 55.5,50.1 			"/>
		</g>
	</g>
	<g>
		<g>
			<polygon class="st2" points="46.8,38 37.3,48.5 56.9,48.5 66.5,38 			"/>
		</g>
	</g>
	<g>
		<g>
			<polygon class="st3" points="36.7,25.5 45.7,35.4 45.8,15.6 			"/>
		</g>
	</g>
	<g>
		<g>
			<polygon class="st4" points="47.2,36.5 66.4,36.5 47.3,15.6 			"/>
		</g>
	</g>
	<g>
		<g>
			<polygon class="st5" points="35.6,48.2 45.5,37.2 35.7,26.6 25.7,37.5 			"/>
		</g>
	</g>
	<g>
		<g>
			<polygon class="st6" points="74.4,45.1 68.2,38.3 48.2,60.3 74.4,60.3 			"/>
		</g>
	</g>
	<g>
		<g>
			<rect x="72.9" y="6.2" class="st7" width="3.2" height="64"/>
		</g>
	</g>
	<g>
		<g>
			<path class="st8" d="M107.2,17.5V9.1h0.9v8.4H107.2z"/>
		</g>
		<g>
			<path class="st8" d="M114.5,13.8v3.7h-0.9v-3.7c0-0.6-0.1-1-0.3-1.2c-0.2-0.3-0.5-0.4-0.9-0.4c-0.5,0-0.9,0.2-1.2,0.5
				c-0.3,0.3-0.5,0.8-0.5,1.4v3.4h-0.9v-4.3c0-0.6,0-1.2-0.1-1.7h0.8l0.1,1.1c0.2-0.4,0.4-0.7,0.7-0.9c0.3-0.2,0.7-0.3,1.1-0.3
				C113.9,11.4,114.5,12.2,114.5,13.8z"/>
		</g>
		<g>
			<path class="st8" d="M115.9,16.8l0.3-0.7c0.3,0.3,0.6,0.4,0.9,0.5c0.3,0.1,0.6,0.2,1,0.2c0.4,0,0.7-0.1,0.9-0.2
				c0.2-0.2,0.3-0.4,0.3-0.7c0-0.2-0.1-0.4-0.2-0.6c-0.1-0.1-0.4-0.3-0.7-0.3l-0.9-0.2c-0.5-0.1-0.8-0.3-1-0.6
				c-0.2-0.3-0.4-0.6-0.4-1c0-0.5,0.2-0.9,0.6-1.3c0.4-0.3,0.9-0.5,1.5-0.5c0.4,0,0.7,0.1,1.1,0.2c0.3,0.1,0.6,0.3,0.8,0.6l-0.3,0.7
				c-0.5-0.5-1.1-0.7-1.6-0.7c-0.4,0-0.7,0.1-0.9,0.2c-0.2,0.2-0.3,0.4-0.3,0.7c0,0.2,0.1,0.4,0.2,0.6c0.1,0.1,0.3,0.3,0.6,0.3
				l0.9,0.2c0.5,0.1,0.9,0.3,1.1,0.6c0.2,0.3,0.4,0.6,0.4,1c0,0.5-0.2,0.9-0.6,1.2c-0.4,0.3-0.9,0.5-1.5,0.5
				C117.1,17.6,116.4,17.3,115.9,16.8z"/>
		</g>
		<g>
			<path class="st8" d="M122.6,12.3v3.2c0,0.4,0.1,0.7,0.2,0.9c0.2,0.2,0.4,0.3,0.7,0.3c0.2,0,0.4,0,0.6-0.1v0.8
				c-0.2,0.1-0.5,0.1-0.8,0.1c-0.5,0-0.9-0.2-1.2-0.5c-0.3-0.3-0.4-0.8-0.4-1.4v-3.4h-1.1v-0.8h1.1V10l0.9-0.3v1.9h1.6v0.8H122.6z"
				/>
		</g>
		<g>
			<path class="st8" d="M125.2,9.1h1.1v1.1h-1.1V9.1z M125.3,17.5v-5.9h0.9v5.9H125.3z"/>
		</g>
		<g>
			<path class="st8" d="M129,12.3v3.2c0,0.4,0.1,0.7,0.2,0.9c0.2,0.2,0.4,0.3,0.7,0.3c0.2,0,0.4,0,0.6-0.1v0.8
				c-0.2,0.1-0.5,0.1-0.8,0.1c-0.5,0-0.9-0.2-1.2-0.5c-0.3-0.3-0.4-0.8-0.4-1.4v-3.4h-1.1v-0.8h1.1V10l0.9-0.3v1.9h1.6v0.8H129z"/>
		</g>
		<g>
			<path class="st8" d="M136.1,11.6v5.9h-0.9v-1c-0.2,0.4-0.4,0.6-0.7,0.8c-0.3,0.2-0.7,0.3-1,0.3c-0.6,0-1.1-0.2-1.5-0.6
				c-0.3-0.4-0.5-1-0.5-1.7v-3.7h0.9v3.7c0,0.5,0.1,0.9,0.3,1.2c0.2,0.3,0.5,0.4,0.9,0.4c0.5,0,0.9-0.2,1.2-0.5
				c0.3-0.3,0.4-0.8,0.4-1.4v-3.3H136.1z"/>
		</g>
		<g>
			<path class="st8" d="M139,12.3v3.2c0,0.4,0.1,0.7,0.2,0.9c0.2,0.2,0.4,0.3,0.7,0.3c0.2,0,0.4,0,0.6-0.1v0.8
				c-0.2,0.1-0.5,0.1-0.8,0.1c-0.5,0-0.9-0.2-1.2-0.5c-0.3-0.3-0.4-0.8-0.4-1.4v-3.4H137v-0.8h1.1V10l0.9-0.3v1.9h1.6v0.8H139z"/>
		</g>
		<g>
			<path class="st8" d="M142.5,17.2c-0.4-0.3-0.7-0.6-0.9-1.1c-0.2-0.5-0.3-1-0.3-1.6c0-0.6,0.1-1.2,0.3-1.6
				c0.2-0.5,0.5-0.8,0.9-1.1s0.8-0.4,1.3-0.4c0.5,0,1,0.1,1.3,0.4s0.7,0.6,0.9,1.1c0.2,0.5,0.3,1,0.3,1.6c0,0.6-0.1,1.2-0.3,1.6
				c-0.2,0.5-0.5,0.8-0.9,1.1c-0.4,0.3-0.8,0.4-1.3,0.4C143.3,17.6,142.8,17.5,142.5,17.2z M145,16.2c0.3-0.4,0.4-1,0.4-1.7
				c0-0.7-0.1-1.3-0.4-1.7c-0.3-0.4-0.7-0.6-1.2-0.6c-0.5,0-0.9,0.2-1.2,0.6c-0.3,0.4-0.4,1-0.4,1.7c0,0.7,0.1,1.3,0.4,1.7
				c0.3,0.4,0.7,0.6,1.2,0.6C144.3,16.8,144.8,16.6,145,16.2z"/>
		</g>
	</g>
	<g>
		<g>
			<path class="st8" d="M87.3,60.1c0.4,0.3,0.6,0.6,0.9,1.1c0.2,0.5,0.3,1,0.3,1.6c0,0.6-0.1,1.1-0.3,1.6c-0.2,0.5-0.5,0.8-0.8,1.1
				s-0.8,0.4-1.3,0.4c-0.4,0-0.8-0.1-1.1-0.3c-0.3-0.2-0.6-0.5-0.7-0.9v3.6h-0.9v-6.8c0-0.6,0-1.2-0.1-1.7h0.8l0.1,1.1
				c0.2-0.4,0.4-0.7,0.7-0.9c0.3-0.2,0.7-0.3,1.2-0.3C86.5,59.7,86.9,59.8,87.3,60.1z M87.1,64.5c0.3-0.4,0.4-1,0.4-1.7
				c0-0.7-0.1-1.3-0.4-1.7c-0.3-0.4-0.7-0.6-1.2-0.6c-0.5,0-1,0.2-1.2,0.6c-0.3,0.4-0.4,1-0.4,1.7s0.1,1.3,0.4,1.7
				c0.3,0.4,0.7,0.6,1.2,0.6C86.4,65.1,86.8,64.9,87.1,64.5z"/>
		</g>
		<g>
			<path class="st8" d="M94.6,59.8v5.9h-0.9v-1.1c-0.2,0.4-0.4,0.7-0.7,0.9c-0.3,0.2-0.7,0.3-1.1,0.3c-0.5,0-0.9-0.1-1.3-0.4
				s-0.6-0.6-0.8-1.1c-0.2-0.5-0.3-1-0.3-1.6c0-0.6,0.1-1.2,0.3-1.6c0.2-0.5,0.5-0.8,0.8-1.1c0.4-0.3,0.8-0.4,1.3-0.4
				c0.4,0,0.8,0.1,1.1,0.3c0.3,0.2,0.6,0.5,0.7,0.9v-1H94.6z M93.3,64.5c0.3-0.4,0.4-1,0.4-1.7s-0.1-1.3-0.4-1.7
				c-0.3-0.4-0.7-0.6-1.2-0.6c-0.5,0-0.9,0.2-1.2,0.6c-0.3,0.4-0.4,1-0.4,1.7c0,0.7,0.1,1.3,0.4,1.7c0.3,0.4,0.7,0.6,1.2,0.6
				C92.6,65.1,93,64.9,93.3,64.5z"/>
		</g>
		<g>
			<path class="st8" d="M99.3,59.8l0,0.9c-0.2-0.1-0.4-0.1-0.6-0.1c-0.5,0-0.9,0.2-1.2,0.5c-0.3,0.4-0.4,0.8-0.4,1.3v3.4h-0.9v-4.3
				c0-0.6,0-1.2-0.1-1.7H97l0.1,1.1c0.1-0.4,0.4-0.7,0.7-0.9s0.6-0.3,1-0.3C99,59.7,99.1,59.7,99.3,59.8z"/>
		</g>
		<g>
			<path class="st8" d="M104.8,59.8v5.9H104v-1.1c-0.2,0.4-0.4,0.7-0.7,0.9c-0.3,0.2-0.7,0.3-1.1,0.3c-0.5,0-0.9-0.1-1.3-0.4
				s-0.6-0.6-0.8-1.1c-0.2-0.5-0.3-1-0.3-1.6c0-0.6,0.1-1.2,0.3-1.6c0.2-0.5,0.5-0.8,0.8-1.1c0.4-0.3,0.8-0.4,1.3-0.4
				c0.4,0,0.8,0.1,1.1,0.3c0.3,0.2,0.6,0.5,0.7,0.9v-1H104.8z M103.5,64.5c0.3-0.4,0.4-1,0.4-1.7s-0.1-1.3-0.4-1.7
				c-0.3-0.4-0.7-0.6-1.2-0.6c-0.5,0-0.9,0.2-1.2,0.6c-0.3,0.4-0.4,1-0.4,1.7c0,0.7,0.1,1.3,0.4,1.7c0.3,0.4,0.7,0.6,1.2,0.6
				C102.8,65.1,103.3,64.9,103.5,64.5z"/>
		</g>
		<g>
			<path class="st8" d="M109.3,65.8v-8.7h0.9v8.7H109.3z"/>
		</g>
		<g>
			<path class="st8" d="M116.7,59.8v5.9h-0.9v-1.1c-0.2,0.4-0.4,0.7-0.7,0.9c-0.3,0.2-0.7,0.3-1.1,0.3c-0.5,0-0.9-0.1-1.3-0.4
				s-0.6-0.6-0.8-1.1c-0.2-0.5-0.3-1-0.3-1.6c0-0.6,0.1-1.2,0.3-1.6c0.2-0.5,0.5-0.8,0.8-1.1c0.4-0.3,0.8-0.4,1.3-0.4
				c0.4,0,0.8,0.1,1.1,0.3c0.3,0.2,0.6,0.5,0.7,0.9v-1H116.7z M115.4,64.5c0.3-0.4,0.4-1,0.4-1.7s-0.1-1.3-0.4-1.7
				c-0.3-0.4-0.7-0.6-1.2-0.6c-0.5,0-0.9,0.2-1.2,0.6c-0.3,0.4-0.4,1-0.4,1.7c0,0.7,0.1,1.3,0.4,1.7c0.3,0.4,0.7,0.6,1.2,0.6
				C114.7,65.1,115.1,64.9,115.4,64.5z"/>
		</g>
		<g>
			<path class="st8" d="M126.6,57.4h0.8v8.4h-0.7l-4.6-6.8v6.8h-0.8v-8.4h0.7l4.6,6.8V57.4z"/>
		</g>
		<g>
			<path class="st8" d="M133.7,59.8v5.9h-0.9v-1c-0.2,0.4-0.4,0.6-0.7,0.8c-0.3,0.2-0.7,0.3-1,0.3c-0.6,0-1.1-0.2-1.5-0.6
				c-0.3-0.4-0.5-1-0.5-1.7v-3.7h0.9v3.7c0,0.5,0.1,0.9,0.3,1.2s0.5,0.4,0.9,0.4c0.5,0,0.9-0.2,1.2-0.5c0.3-0.3,0.4-0.8,0.4-1.4
				v-3.3H133.7z"/>
		</g>
		<g>
			<path class="st8" d="M136.6,60.6v3.2c0,0.4,0.1,0.7,0.2,0.9c0.2,0.2,0.4,0.3,0.7,0.3c0.2,0,0.4,0,0.6-0.1v0.8
				c-0.2,0.1-0.5,0.1-0.8,0.1c-0.5,0-0.9-0.2-1.2-0.5c-0.3-0.3-0.4-0.8-0.4-1.4v-3.4h-1.1v-0.8h1.1v-1.5l0.9-0.3v1.9h1.6v0.8H136.6z
				"/>
		</g>
		<g>
			<path class="st8" d="M142.2,59.8l0,0.9c-0.2-0.1-0.4-0.1-0.6-0.1c-0.5,0-0.9,0.2-1.2,0.5c-0.3,0.4-0.4,0.8-0.4,1.3v3.4h-0.9v-4.3
				c0-0.6,0-1.2-0.1-1.7h0.8l0.1,1.1c0.1-0.4,0.4-0.7,0.7-0.9c0.3-0.2,0.6-0.3,1-0.3C141.9,59.7,142,59.7,142.2,59.8z"/>
		</g>
		<g>
			<path class="st8" d="M143,57.3h1.1v1.1H143V57.3z M143.1,65.8v-5.9h0.9v5.9H143.1z"/>
		</g>
		<g>
			<path class="st8" d="M146.5,65.5c-0.4-0.3-0.7-0.6-0.9-1.1c-0.2-0.5-0.3-1-0.3-1.6c0-0.6,0.1-1.2,0.3-1.6
				c0.2-0.5,0.5-0.8,0.9-1.1c0.4-0.3,0.9-0.4,1.4-0.4c0.4,0,0.7,0.1,1.1,0.2c0.3,0.1,0.6,0.3,0.8,0.6l-0.3,0.7
				c-0.3-0.2-0.5-0.4-0.8-0.5c-0.3-0.1-0.5-0.2-0.8-0.2c-0.6,0-1,0.2-1.3,0.6c-0.3,0.4-0.5,1-0.5,1.7c0,0.7,0.2,1.3,0.5,1.7
				c0.3,0.4,0.7,0.6,1.3,0.6c0.3,0,0.5-0.1,0.8-0.2c0.3-0.1,0.5-0.3,0.8-0.5l0.3,0.7c-0.2,0.2-0.5,0.4-0.9,0.6
				c-0.3,0.1-0.7,0.2-1.1,0.2C147.4,65.9,146.9,65.7,146.5,65.5z"/>
		</g>
		<g>
			<path class="st8" d="M150.9,57.3h1.1v1.1h-1.1V57.3z M151,65.8v-5.9h0.9v5.9H151z"/>
		</g>
		<g>
			<path class="st8" d="M154.4,65.5c-0.4-0.3-0.7-0.6-0.9-1.1c-0.2-0.5-0.3-1-0.3-1.6c0-0.6,0.1-1.2,0.3-1.6
				c0.2-0.5,0.5-0.8,0.9-1.1c0.4-0.3,0.8-0.4,1.3-0.4s1,0.1,1.3,0.4c0.4,0.3,0.7,0.6,0.9,1.1c0.2,0.5,0.3,1,0.3,1.6
				c0,0.6-0.1,1.2-0.3,1.6c-0.2,0.5-0.5,0.8-0.9,1.1s-0.8,0.4-1.3,0.4S154.8,65.7,154.4,65.5z M157,64.5c0.3-0.4,0.4-1,0.4-1.7
				c0-0.7-0.1-1.3-0.4-1.7c-0.3-0.4-0.7-0.6-1.2-0.6c-0.5,0-0.9,0.2-1.2,0.6c-0.3,0.4-0.4,1-0.4,1.7c0,0.7,0.1,1.3,0.4,1.7
				c0.3,0.4,0.7,0.6,1.2,0.6C156.3,65.1,156.7,64.9,157,64.5z M156.1,59.1h-0.6l1.1-2.4h1L156.1,59.1z"/>
		</g>
		<g>
			<path class="st8" d="M164.3,62v3.7h-0.9v-3.7c0-0.6-0.1-1-0.3-1.2c-0.2-0.3-0.5-0.4-0.9-0.4c-0.5,0-0.9,0.2-1.2,0.5
				c-0.3,0.3-0.5,0.8-0.5,1.4v3.4h-0.9v-4.3c0-0.6,0-1.2-0.1-1.7h0.8l0.1,1.1c0.2-0.4,0.4-0.7,0.7-0.9c0.3-0.2,0.7-0.3,1.1-0.3
				C163.7,59.7,164.3,60.5,164.3,62z"/>
		</g>
		<g>
			<path class="st8" d="M168.9,57.4h3.1c0.8,0,1.4,0.2,1.8,0.6c0.4,0.4,0.7,1,0.7,1.7c0,0.7-0.2,1.3-0.7,1.7
				c-0.4,0.4-1.1,0.6-1.8,0.6h-2.2v3.7h-0.9V57.4z M171.9,61.3c0.6,0,1-0.1,1.3-0.4c0.3-0.3,0.4-0.7,0.4-1.2c0-0.5-0.1-0.9-0.4-1.1
				c-0.3-0.3-0.7-0.4-1.3-0.4h-2.1v3.1H171.9z"/>
		</g>
		<g>
			<path class="st8" d="M180.2,62.8h-4c0,0.8,0.2,1.3,0.5,1.7c0.3,0.4,0.8,0.6,1.4,0.6c0.6,0,1.2-0.2,1.7-0.7l0.3,0.7
				c-0.2,0.2-0.5,0.4-0.9,0.6c-0.4,0.1-0.7,0.2-1.1,0.2c-0.8,0-1.5-0.3-2-0.8c-0.5-0.5-0.7-1.3-0.7-2.2c0-0.6,0.1-1.1,0.3-1.6
				c0.2-0.5,0.5-0.8,0.9-1.1c0.4-0.3,0.8-0.4,1.3-0.4c0.7,0,1.3,0.3,1.7,0.8c0.4,0.5,0.6,1.2,0.6,2.1V62.8z M176.8,60.9
				c-0.3,0.3-0.5,0.7-0.5,1.3h3.2c0-0.6-0.2-1-0.4-1.3c-0.3-0.3-0.6-0.4-1.1-0.4S177,60.6,176.8,60.9z"/>
		</g>
		<g>
			<path class="st8" d="M184.5,59.8l0,0.9c-0.2-0.1-0.4-0.1-0.6-0.1c-0.5,0-0.9,0.2-1.2,0.5c-0.3,0.4-0.4,0.8-0.4,1.3v3.4h-0.9v-4.3
				c0-0.6,0-1.2-0.1-1.7h0.8l0.1,1.1c0.1-0.4,0.4-0.7,0.7-0.9c0.3-0.2,0.6-0.3,1-0.3C184.2,59.7,184.3,59.7,184.5,59.8z"/>
		</g>
		<g>
			<path class="st8" d="M185,65.1l0.3-0.7c0.3,0.3,0.6,0.4,0.9,0.5c0.3,0.1,0.6,0.2,1,0.2c0.4,0,0.7-0.1,0.9-0.2
				c0.2-0.2,0.3-0.4,0.3-0.7c0-0.2-0.1-0.4-0.2-0.6c-0.1-0.1-0.4-0.3-0.7-0.3l-0.9-0.2c-0.5-0.1-0.8-0.3-1-0.6
				c-0.2-0.3-0.4-0.6-0.4-1c0-0.5,0.2-0.9,0.6-1.3c0.4-0.3,0.9-0.5,1.5-0.5c0.4,0,0.7,0.1,1.1,0.2c0.3,0.1,0.6,0.3,0.8,0.6l-0.3,0.7
				c-0.5-0.5-1.1-0.7-1.6-0.7c-0.4,0-0.7,0.1-0.9,0.2c-0.2,0.2-0.3,0.4-0.3,0.7c0,0.2,0.1,0.4,0.2,0.6c0.1,0.1,0.3,0.3,0.6,0.3
				l0.9,0.2c0.5,0.1,0.9,0.3,1.1,0.6c0.2,0.3,0.4,0.6,0.4,1c0,0.5-0.2,0.9-0.6,1.2c-0.4,0.3-0.9,0.5-1.5,0.5
				C186.3,65.9,185.5,65.6,185,65.1z"/>
		</g>
		<g>
			<path class="st8" d="M191.6,65.5c-0.4-0.3-0.7-0.6-0.9-1.1c-0.2-0.5-0.3-1-0.3-1.6c0-0.6,0.1-1.2,0.3-1.6
				c0.2-0.5,0.5-0.8,0.9-1.1c0.4-0.3,0.8-0.4,1.3-0.4s1,0.1,1.3,0.4c0.4,0.3,0.7,0.6,0.9,1.1c0.2,0.5,0.3,1,0.3,1.6
				c0,0.6-0.1,1.2-0.3,1.6c-0.2,0.5-0.5,0.8-0.9,1.1s-0.8,0.4-1.3,0.4S192,65.7,191.6,65.5z M194.2,64.5c0.3-0.4,0.4-1,0.4-1.7
				c0-0.7-0.1-1.3-0.4-1.7c-0.3-0.4-0.7-0.6-1.2-0.6c-0.5,0-0.9,0.2-1.2,0.6c-0.3,0.4-0.4,1-0.4,1.7c0,0.7,0.1,1.3,0.4,1.7
				c0.3,0.4,0.7,0.6,1.2,0.6C193.5,65.1,193.9,64.9,194.2,64.5z"/>
		</g>
		<g>
			<path class="st8" d="M201.5,62v3.7h-0.9v-3.7c0-0.6-0.1-1-0.3-1.2c-0.2-0.3-0.5-0.4-0.9-0.4c-0.5,0-0.9,0.2-1.2,0.5
				c-0.3,0.3-0.5,0.8-0.5,1.4v3.4h-0.9v-4.3c0-0.6,0-1.2-0.1-1.7h0.8l0.1,1.1c0.2-0.4,0.4-0.7,0.7-0.9c0.3-0.2,0.7-0.3,1.1-0.3
				C200.8,59.7,201.5,60.5,201.5,62z"/>
		</g>
		<g>
			<path class="st8" d="M207.9,59.8v5.9H207v-1.1c-0.2,0.4-0.4,0.7-0.7,0.9c-0.3,0.2-0.7,0.3-1.1,0.3c-0.5,0-0.9-0.1-1.3-0.4
				s-0.6-0.6-0.8-1.1c-0.2-0.5-0.3-1-0.3-1.6c0-0.6,0.1-1.2,0.3-1.6c0.2-0.5,0.5-0.8,0.8-1.1c0.4-0.3,0.8-0.4,1.3-0.4
				c0.4,0,0.8,0.1,1.1,0.3c0.3,0.2,0.6,0.5,0.7,0.9v-1H207.9z M206.6,64.5c0.3-0.4,0.4-1,0.4-1.7s-0.1-1.3-0.4-1.7
				c-0.3-0.4-0.7-0.6-1.2-0.6c-0.5,0-0.9,0.2-1.2,0.6c-0.3,0.4-0.4,1-0.4,1.7c0,0.7,0.1,1.3,0.4,1.7c0.3,0.4,0.7,0.6,1.2,0.6
				C205.9,65.1,206.3,64.9,206.6,64.5z"/>
		</g>
		<g>
			<path class="st8" d="M209.6,65.8v-8.7h0.9v8.7H209.6z"/>
		</g>
		<g>
			<path class="st8" d="M212.1,57.3h1.1v1.1h-1.1V57.3z M212.1,65.8v-5.9h0.9v5.9H212.1z"/>
		</g>
		<g>
			<path class="st8" d="M215.5,65h3.5v0.8h-4.6v-0.7l3.4-4.5h-3.3v-0.8h4.3v0.7L215.5,65z"/>
		</g>
		<g>
			<path class="st8" d="M224.9,59.8v5.9h-0.9v-1.1c-0.2,0.4-0.4,0.7-0.7,0.9c-0.3,0.2-0.7,0.3-1.1,0.3c-0.5,0-0.9-0.1-1.3-0.4
				s-0.6-0.6-0.8-1.1c-0.2-0.5-0.3-1-0.3-1.6c0-0.6,0.1-1.2,0.3-1.6c0.2-0.5,0.5-0.8,0.8-1.1c0.4-0.3,0.8-0.4,1.3-0.4
				c0.4,0,0.8,0.1,1.1,0.3c0.3,0.2,0.6,0.5,0.7,0.9v-1H224.9z M223.7,64.5c0.3-0.4,0.4-1,0.4-1.7s-0.1-1.3-0.4-1.7
				c-0.3-0.4-0.7-0.6-1.2-0.6c-0.5,0-0.9,0.2-1.2,0.6c-0.3,0.4-0.4,1-0.4,1.7c0,0.7,0.1,1.3,0.4,1.7c0.3,0.4,0.7,0.6,1.2,0.6
				C223,65.1,223.4,64.9,223.7,64.5z"/>
		</g>
		<g>
			<path class="st8" d="M231.4,57.1v8.7h-0.9v-1.1c-0.2,0.4-0.4,0.7-0.7,0.9c-0.3,0.2-0.7,0.3-1.1,0.3c-0.5,0-0.9-0.1-1.3-0.4
				c-0.4-0.3-0.6-0.6-0.8-1.1c-0.2-0.5-0.3-1-0.3-1.6s0.1-1.1,0.3-1.6c0.2-0.5,0.5-0.8,0.8-1.1c0.4-0.3,0.8-0.4,1.3-0.4
				c0.4,0,0.8,0.1,1.1,0.3c0.3,0.2,0.6,0.5,0.7,0.8v-3.8H231.4z M230.1,64.5c0.3-0.4,0.4-1,0.4-1.7c0-0.7-0.1-1.3-0.4-1.7
				c-0.3-0.4-0.7-0.6-1.2-0.6c-0.5,0-0.9,0.2-1.2,0.6c-0.3,0.4-0.4,0.9-0.4,1.7c0,0.7,0.1,1.3,0.4,1.7c0.3,0.4,0.7,0.6,1.2,0.6
				C229.4,65.1,229.8,64.9,230.1,64.5z"/>
		</g>
		<g>
			<path class="st8" d="M237.9,59.8v5.9H237v-1.1c-0.2,0.4-0.4,0.7-0.7,0.9c-0.3,0.2-0.7,0.3-1.1,0.3c-0.5,0-0.9-0.1-1.3-0.4
				s-0.6-0.6-0.8-1.1c-0.2-0.5-0.3-1-0.3-1.6c0-0.6,0.1-1.2,0.3-1.6c0.2-0.5,0.5-0.8,0.8-1.1c0.4-0.3,0.8-0.4,1.3-0.4
				c0.4,0,0.8,0.1,1.1,0.3c0.3,0.2,0.6,0.5,0.7,0.9v-1H237.9z M236.6,64.5c0.3-0.4,0.4-1,0.4-1.7s-0.1-1.3-0.4-1.7
				c-0.3-0.4-0.7-0.6-1.2-0.6c-0.5,0-0.9,0.2-1.2,0.6c-0.3,0.4-0.4,1-0.4,1.7c0,0.7,0.1,1.3,0.4,1.7c0.3,0.4,0.7,0.6,1.2,0.6
				C235.9,65.1,236.3,64.9,236.6,64.5z"/>
		</g>
	</g>
	<g>
		<g>
			<path class="st9" d="M110.4,28.9c0.6,0,1.3-0.2,1.5-0.2c0.1-0.3,0.3-1.1,0.4-1.6L112,27c-0.4,1-0.8,1.5-1.6,1.5
				c-0.9,0-1.6-1-1.6-2.6c0-1.3,0.6-2.4,1.6-2.4c0.6,0,1.1,0.3,1.4,1.3l0.4-0.1c0-0.7-0.1-1-0.2-1.5c-0.2-0.1-0.8-0.2-1.5-0.2
				c-1.9,0-3.3,1.2-3.3,3.1C107.2,27.4,108.1,28.9,110.4,28.9 M119.1,27.2l-0.4-0.1c-0.1,0.4-0.3,0.7-0.4,0.9
				c-0.2,0.2-0.6,0.3-0.9,0.3c-0.3,0-0.5,0-0.6-0.1c-0.2-0.1-0.2-0.3-0.2-0.8v-1.4h0.4c0.7,0,0.7,0.1,0.8,0.8h0.4v-2.1H118
				c-0.1,0.7-0.1,0.7-0.8,0.7h-0.4v-1.7c0-0.3,0-0.3,0.3-0.3h0.1c0.4,0,0.7,0.1,0.8,0.2c0.1,0.1,0.2,0.4,0.3,0.8l0.4,0
				c0-0.7-0.1-1.3-0.1-1.4h-4v0.3c0.6,0,0.6,0.1,0.6,1.1v2.9c0,0.9-0.1,1-0.7,1.1v0.3h4.2C118.9,28.6,119.1,27.7,119.1,27.2
				 M122.5,24.7v1.6c0,0.9,0,1.4-0.1,1.7c0,0.3-0.3,0.4-0.6,0.4v0.3h2.1v-0.3c-0.5,0-0.8-0.1-0.8-0.4c0-0.3-0.1-0.8-0.1-1.7v-1.6h0
				l3.1,4.1h0.7v-3.3c0-0.9,0-1.4,0.1-1.7c0-0.3,0.3-0.4,0.7-0.4v-0.3h-2.1v0.3c0.6,0,0.8,0.1,0.8,0.4c0,0.3,0.1,0.8,0.1,1.7v1.2h0
				l-2.8-3.6h-1.8v0.3c0.3,0,0.5,0.1,0.6,0.3C122.5,24,122.5,24.1,122.5,24.7 M130,23.8c0.1-0.2,0.4-0.3,0.9-0.3h0.1v3.8
				c0,0.9-0.1,1-0.7,1.1v0.3h2.9v-0.3c-0.7-0.1-0.8-0.1-0.8-1.1v-3.8h0.2c0.4,0,0.7,0.1,0.8,0.2c0.1,0.2,0.2,0.4,0.3,0.9l0.4,0
				c0-0.6-0.1-1.4-0.1-1.8h-0.3c-0.1,0.2-0.2,0.2-0.4,0.2h-3.3c-0.2,0-0.3,0-0.4-0.2h-0.3c0,0.4-0.1,1.1-0.1,1.8h0.4
				C129.8,24.2,129.9,23.9,130,23.8 M138.3,28.4c-0.6-0.1-0.6-0.1-0.6-1.1v-1h0.1c0.2,0,0.3,0.1,0.4,0.3c0.2,0.5,0.4,1,0.7,1.4
				c0.3,0.5,0.6,0.8,1.8,0.8l0.4,0l0-0.3c-0.2-0.1-0.3-0.2-0.5-0.4c-0.1-0.2-0.3-0.5-0.6-0.9c-0.2-0.4-0.5-1-0.7-1.3
				c0.6-0.3,1.1-0.7,1.1-1.5c0-0.5-0.2-0.9-0.6-1.1c-0.3-0.2-0.8-0.3-1.4-0.3h-2.6v0.3c0.6,0,0.6,0.1,0.6,1.1v2.9
				c0,0.9-0.1,1-0.7,1.1v0.3h2.6V28.4z M137.7,23.9c0-0.3,0-0.4,0.4-0.4c0.3,0,0.8,0.3,0.8,1.1c0,0.4-0.1,0.8-0.5,1.1
				c-0.2,0.1-0.4,0.2-0.6,0.2h-0.1V23.9z M143.3,27.9l0.2-0.8h1.4l0.3,0.9c0.1,0.3,0.1,0.4-0.2,0.4l-0.3,0v0.3h2.6v-0.3
				c-0.4-0.1-0.6-0.1-0.8-0.9c-0.3-0.9-0.7-1.9-1-3l-0.6-1.7l-0.6,0.1l-1.7,4.5c-0.3,0.7-0.4,0.8-0.8,0.8v0.3h1.9v-0.3l-0.2,0
				C143.2,28.4,143.2,28.3,143.3,27.9 M144.2,24.9L144.2,24.9l0.6,1.7h-1.1L144.2,24.9z M153.5,27.3l-0.4-0.1
				c-0.1,0.5-0.3,0.7-0.4,0.9c-0.2,0.2-0.5,0.2-0.8,0.2c-0.3,0-0.5,0-0.6-0.1c-0.1-0.1-0.2-0.3-0.2-0.8v-3c0-0.9,0.1-1,0.7-1.1v-0.3
				h-2.7v0.3c0.6,0,0.6,0.1,0.6,1.1v2.9c0,0.9-0.1,1-0.7,1.1v0.3h4.1C153.3,28.5,153.4,27.6,153.5,27.3 M162.8,27.3l-0.4-0.1
				c-0.1,0.5-0.3,0.7-0.4,0.9c-0.2,0.2-0.5,0.2-0.8,0.2c-0.3,0-0.5,0-0.6-0.1c-0.1-0.1-0.2-0.3-0.2-0.8v-3c0-0.9,0.1-1,0.7-1.1v-0.3
				h-2.7v0.3c0.6,0,0.6,0.1,0.6,1.1v2.9c0,0.9-0.1,1-0.7,1.1v0.3h4.1C162.5,28.5,162.7,27.6,162.8,27.3 M169,27.2l-0.4-0.1
				c-0.1,0.4-0.3,0.7-0.4,0.9c-0.2,0.2-0.6,0.3-0.9,0.3c-0.3,0-0.4,0-0.6-0.1c-0.1-0.1-0.2-0.3-0.2-0.8v-1.4h0.4
				c0.7,0,0.7,0.1,0.8,0.8h0.4v-2.1h-0.4c-0.1,0.7-0.1,0.7-0.8,0.7h-0.4v-1.7c0-0.3,0-0.3,0.3-0.3h0.1c0.4,0,0.7,0.1,0.8,0.2
				c0.1,0.1,0.2,0.4,0.3,0.8l0.4,0c0-0.7-0.1-1.3-0.1-1.4h-4v0.3c0.6,0,0.6,0.1,0.6,1.1v2.9c0,0.9-0.1,1-0.7,1.1v0.3h4.3
				C168.8,28.6,169,27.7,169,27.2 M174.4,28.9c0.6,0,1.3-0.2,1.5-0.2c0.1-0.3,0.3-1.1,0.4-1.6L176,27c-0.4,1-0.8,1.5-1.6,1.5
				c-0.9,0-1.6-1-1.6-2.6c0-1.3,0.6-2.4,1.6-2.4c0.6,0,1.1,0.3,1.4,1.3l0.4-0.1c-0.1-0.7-0.1-1-0.2-1.5c-0.2-0.1-0.8-0.2-1.5-0.2
				c-1.9,0-3.3,1.2-3.3,3.1C171.3,27.4,172.2,28.9,174.4,28.9 M179.4,24.5v2.9c0,0.9-0.1,1-0.6,1.1v0.3h2.7v-0.3
				c-0.5-0.1-0.6-0.1-0.6-1.1v-1.3h1.7v1.3c0,0.9-0.1,1-0.7,1.1v0.3h2.7v-0.3c-0.6-0.1-0.6-0.1-0.6-1.1v-2.9c0-0.9,0.1-1,0.7-1.1
				v-0.3h-2.7v0.3c0.5,0,0.6,0.1,0.6,1.1v1h-1.7v-1c0-0.9,0.1-1,0.6-1.1v-0.3h-2.7v0.3C179.3,23.5,179.4,23.6,179.4,24.5
				 M191.6,27.2l-0.4-0.1c-0.1,0.4-0.3,0.7-0.4,0.9c-0.2,0.2-0.6,0.3-0.9,0.3c-0.3,0-0.5,0-0.6-0.1c-0.1-0.1-0.2-0.3-0.2-0.8v-1.4
				h0.4c0.7,0,0.7,0.1,0.8,0.8h0.4v-2.1h-0.4c-0.1,0.7-0.1,0.7-0.8,0.7h-0.4v-1.7c0-0.3,0-0.3,0.3-0.3h0.1c0.4,0,0.7,0.1,0.8,0.2
				c0.1,0.1,0.2,0.4,0.3,0.8l0.4,0c0-0.7-0.1-1.3-0.1-1.4h-4v0.3c0.6,0,0.6,0.1,0.6,1.1v2.9c0,0.9-0.1,1-0.7,1.1v0.3h4.2
				C191.4,28.6,191.5,27.7,191.6,27.2 M196.5,28.4c-0.6-0.1-0.6-0.1-0.6-1.1v-1h0.1c0.2,0,0.3,0.1,0.4,0.3c0.2,0.5,0.4,1,0.7,1.4
				c0.3,0.5,0.6,0.8,1.8,0.8l0.4,0l0-0.3c-0.2-0.1-0.3-0.2-0.5-0.4c-0.1-0.2-0.3-0.5-0.6-0.9c-0.2-0.4-0.6-1-0.7-1.3
				c0.6-0.3,1.1-0.7,1.1-1.5c0-0.5-0.3-0.9-0.6-1.1c-0.3-0.2-0.8-0.3-1.4-0.3h-2.6v0.3c0.6,0,0.6,0.1,0.6,1.1v2.9
				c0,0.9-0.1,1-0.7,1.1v0.3h2.6V28.4z M195.8,23.9c0-0.3,0-0.4,0.4-0.4c0.3,0,0.8,0.3,0.8,1.1c0,0.4-0.1,0.8-0.5,1.1
				c-0.2,0.1-0.4,0.2-0.6,0.2h-0.1V23.9z M202.4,28.4l-0.2,0c-0.4,0-0.4-0.1-0.3-0.5l0.3-0.8h1.4l0.3,0.9c0.1,0.3,0.1,0.4-0.2,0.4
				l-0.2,0v0.3h2.6v-0.3c-0.4-0.1-0.6-0.1-0.8-0.9c-0.3-0.9-0.7-1.9-1-3l-0.6-1.7l-0.6,0.1l-1.7,4.5c-0.3,0.7-0.4,0.8-0.8,0.8v0.3h2
				V28.4z M202.8,24.9L202.8,24.9l0.6,1.7h-1.1L202.8,24.9z M103.5,49.5c-1.1-0.2-1.3-0.7-1.6-1.2c-0.4-0.8-1.4-4.7-3.9-13.3
				c-2.6-8.7-3.1-11.7-4.2-11.7c-0.9,0-1.4-0.1-1.9,1.5c-1.3,4.1-1.9,6.2-3.1,10.2c-1.2,4.3-3.1,11.1-3.1,11.1
				c-0.8,2.7-1.5,2.9-2,3.1c-0.6,0.2-1.2,0.2-1.2,1.2c0,1,1,0.9,1.3,0.9c0.4,0,1.5-0.1,2.9-0.1c0.9,0,2.1,0.1,2.4,0.1
				c0.6,0,1.2,0,1.2-0.9c0-0.8-0.7-1-1.7-1.2c-0.7-0.3-1.2-0.8-1.2-1.7c0-0.3,0-0.7,0.1-1.1c0.2-1.3,0.3-1.2,0.5-2.6
				c0.1-0.6,0.3-1.6,0.8-1.6h4.8c1,0,0.9,0.1,1.3,1.6c0.6,2.1,1.1,4.1,1.1,4.1c0.1,0.4,0.1,0.7,0.1,0.8c0,0.6-0.4,0.7-0.8,0.8
				c-0.6,0.2-1.2,0.3-1.2,1c0,1.1,0.8,1,1.1,1c0.7,0,3-0.1,3.7-0.1c1.9,0,4,0.1,4.7,0.1c0.4,0,0.9-0.1,0.9-0.9
				C104.4,49.8,103.8,49.6,103.5,49.5 M93.6,39.8c0,0.3-0.2,0.4-0.6,0.4h-3.6c-0.4,0-0.4-0.2-0.4-0.4c0-0.2,0.1-0.4,0.2-0.8l2.1-6.8
				l2.1,6.6C93.7,39.4,93.7,39.6,93.6,39.8 M113,39.8c-2.2-1.3-2.9-1.7-2.9-2.9c0-1.1,0.5-1.7,1.3-1.7c1,0,1.3,0.9,1.5,1.5
				c0.5,1.3,0.7,1.7,1.2,1.7c0.8,0,0.8-0.9,0.8-1.5l-0.1-2.2c0-0.5-0.1-0.6-0.4-0.7c-1.3-0.5-2.5-0.7-3.4-0.7
				c-0.8,0-5.5,0.2-5.5,5.7c0,3.1,1.8,4.5,3.2,5.5c1.6,1.1,2.5,1.7,2.5,3.2c0,1.2-0.7,1.8-2,1.8c-1.4,0-1.7-0.9-1.9-2.2
				c-0.2-0.9-0.5-2.4-1.3-2.4c-0.9,0-0.9,1.5-0.9,1.8v2.3c0,0.9,0.2,1.2,0.6,1.4c1.6,1,3.6,1,3.9,1c3.5,0,5.9-2.6,5.9-6.4
				C115.6,41.7,113.7,40.3,113,39.8 M128.2,32.9c-0.3,0-0.5,0.2-1,0.9c-0.3,0.4-0.4,0.5-1.4,0.5h-6.7c-0.9,0-1-0.2-1.2-0.5
				c-0.4-0.6-0.6-0.8-0.9-0.8c-0.6,0-0.8,0.9-1,1.6l-0.6,2.6c0,0.2-0.1,0.6-0.1,0.9c0,0.4,0.2,0.8,0.7,0.8c0.5,0,0.8-0.5,1.5-1.6
				c0.6-1,0.4-1.1,1.9-1.1c0.5,0,0.5,0.1,0.5,1v9.8c0,2.1,0.1,2.1-0.9,2.7c-0.4,0.2-1.1,0.1-1.1,1c0,0.7,0.8,0.7,1,0.7h6.4
				c0.2,0,0.8,0,0.8-0.7c0-0.7-0.4-0.7-0.9-0.9c-0.8-0.2-0.9-0.7-0.9-2.7v-9.8c0-1,0-1,0.7-1h0.7c0.9,0,0.9,0.2,1.3,1.4
				c0.3,0.9,0.5,1.4,0.9,1.4c0.6,0,0.8-0.5,0.8-1.3v-3.1C128.8,33.8,128.8,32.9,128.2,32.9 M142.9,33.9c-0.2,0-1,0.1-1.8,0.1
				c-0.8,0-1.6-0.1-1.7-0.1c-0.4,0-0.8,0.2-0.8,0.7c0,0.6,0.5,0.7,0.9,0.8c0.7,0.1,1,0.4,1,2.2v7.9c0,1.5-0.1,4.1-2.8,4.1
				c-2.4,0-2.4-3-2.4-3.9v-7.6c0-2,0.3-2.5,0.9-2.7c0.4-0.1,0.9-0.1,0.9-0.8c0-0.7-0.6-0.7-0.8-0.7c-0.3,0-1.9,0.1-3.4,0.1
				c-1.6,0-2.7-0.1-3.2-0.1c-0.2,0-0.7,0.1-0.7,0.7c0,0.7,0.5,0.6,0.9,0.8c0.7,0.4,0.7,0.7,0.7,2.8v7.4c0,5.3,4.1,5.8,5.8,5.8
				c5.2,0,5.3-3.9,5.3-6.1v-7.1c0-2.3,0.1-2.5,0.8-2.8c0.6-0.2,0.8-0.5,0.8-1C143.6,33.9,143.1,33.9,142.9,33.9 M158.8,50
				c-0.7-0.2-1-0.8-1.3-1.6l-1.8-4.2c-0.2-0.4-0.2-0.7,0-0.8c0.3-0.2,0.5-0.4,0.9-0.8c0.5-0.6,1-1.5,1-3.4c0-2.4-1.2-4.8-4.4-4.8
				c-2.1,0-3.1,0.1-5.1,0.1c-2,0-2.9-0.1-3.3-0.1c-0.2,0-0.7,0.1-0.7,0.8c0,0.7,0.5,0.7,0.9,0.8c0.7,0.2,0.9,1,0.9,2.8V47
				c0,2.2-0.2,2.5-0.9,2.7c-0.4,0.1-0.9,0.3-0.9,1c0,0.7,0.5,0.7,0.7,0.7h5.6c1.2,0,1.6,0,1.6-0.7c0-0.5-0.3-0.7-0.8-1
				c-0.5-0.3-0.6-0.7-0.6-1.7v-3c0-0.6-0.1-0.7,0.1-0.7c0.2,0,0.2,0.5,0.5,1.2c0,0,1,2.5,1.8,4.8c0.2,0.5,0.4,1,0.8,1
				c4.4,0,4.8,0.1,4.9,0.1c0.2,0,0.7,0,0.7-0.7C159.5,50.2,159.2,50.1,158.8,50 M150.9,42.4c-0.5,0-0.4-0.2-0.4-1v-3.8
				c0-0.7,0-1.3,0.8-1.3c1.1,0,1.5,1.7,1.5,2.8C152.8,41.4,152.1,42.3,150.9,42.4 M167,35.9c0.4,0,0.9-0.2,0.9-0.9
				c0-0.7-0.5-0.7-0.7-0.7c-0.3,0-1.1,0.1-3.1,0.1c-1.9,0-3.3-0.1-3.6-0.1c-0.2,0-0.7,0-0.7,0.7c0,0.7,0.5,0.9,0.9,0.9
				c0.7,0.1,0.9,0.6,0.9,3v8.3c0,2.1-0.1,2.5-0.9,2.7c-0.4,0.1-0.9,0.2-0.9,0.9c0,0.7,0.5,0.7,0.7,0.7h6.8c0.2,0,0.7,0,0.7-0.7
				c0-0.7-0.5-0.7-0.9-0.8c-0.7-0.1-0.9-0.5-0.9-2.8v-8.3C166.1,36.5,166.2,36.1,167,35.9 M181.8,50c-0.4-0.2-0.4-0.2-0.5-0.5
				c-0.3-0.4-1-3-3-10.1c-0.2-0.8-1.2-4.8-1.5-5.3c-0.2-0.4-1.2-0.5-1.6-0.5c-0.6,0-1.8,0.1-1.9,0.9c-0.1,0.4-0.3,1.3-0.4,1.7
				l-3.1,11.6c-0.5,1.9-0.6,2-1,2.1c-0.4,0.2-0.8,0.3-0.8,0.9c0,0.7,0.5,0.7,0.7,0.7h3.6c0.1,0,0.7,0,0.7-0.7c0-0.6-0.3-0.7-0.8-0.9
				c-0.5-0.2-0.7-0.5-0.7-1.2c0-0.1,0-0.3,0.1-0.5l0.2-0.9c0.1-0.7,0.3-0.7,0.6-0.7h2.3c0.7,0,0.5,0,0.7,0.6l0.4,1.4
				c0.1,0.3,0.1,0.5,0.1,0.6c0,0.4-0.2,0.6-0.4,0.6c-0.5,0.1-0.9,0.2-0.9,0.9c0,0.8,0.7,0.8,0.9,0.8h6.1c0.3,0,0.7-0.1,0.7-0.7
				C182.3,50.2,181.9,50.1,181.8,50 M174.6,44.5h-1.8c-0.2,0-0.3-0.1-0.3-0.2c0-0.1,0-0.3,0.1-0.6l1-3.9l0.9,3.5
				c0.1,0.4,0.3,0.8,0.3,1C174.8,44.4,174.8,44.5,174.6,44.5 M198.1,34.9c0-0.8-0.6-0.8-1-0.8c-0.2,0-0.9,0.1-1.5,0.1
				c-1,0-1.5-0.1-1.8-0.1c-0.3,0-0.8,0-0.8,0.7c0,0.5,0.4,0.8,0.8,0.9c0.8,0.1,0.9,0.7,0.9,2v6.5l-5-9.6c-0.2-0.4-0.3-0.5-0.8-0.5
				c-0.2,0-0.6,0.1-1.7,0.1c-1.6,0-2.6-0.1-3.3-0.1c-0.7,0-1.3,0-1.3,0.7c0,0.7,0.2,0.7,0.8,0.9c0.6,0.2,0.9,0.8,0.9,1.5v10.3
				c0,1.7-0.3,2.1-1,2.3c-0.6,0.1-0.9,0.3-0.9,0.9c0,0.7,0.5,0.7,0.7,0.7h4.2c0.3,0,0.8,0,0.8-0.7c0-0.7-0.4-0.7-0.9-0.9
				c-0.9-0.2-1.2-0.9-1.2-2.3v-9.1l7.2,12.6c0.2,0.5,0.3,0.5,0.8,0.5h1.9c0.5,0,0.5-0.4,0.5-1.1V37.6c0-1,0.1-1.6,0.7-1.8
				C197.7,35.6,198.1,35.6,198.1,34.9 M210.7,50c-0.4-0.2-0.3-0.2-0.5-0.5c-0.3-0.4-1-3-2.9-10.1c-0.2-0.8-1.2-4.8-1.5-5.3
				c-0.2-0.4-1.2-0.5-1.6-0.5c-0.6,0-1.8,0.1-1.9,0.9c-0.1,0.4-0.3,1.3-0.4,1.7l-3.1,11.6c-0.5,1.9-0.7,2-1,2.1
				c-0.4,0.2-0.8,0.3-0.8,0.9c0,0.7,0.5,0.7,0.7,0.7c0.3,0,0.9-0.1,1.9-0.1c0.6,0,1.5,0.1,1.6,0.1c0.2,0,0.7,0,0.7-0.7
				c0-0.6-0.3-0.7-0.8-0.9c-0.5-0.2-0.7-0.5-0.7-1.2c0-0.1,0-0.3,0.1-0.5l0.2-0.9c0.1-0.7,0.3-0.7,0.6-0.7h2.3c0.6,0,0.5,0,0.7,0.6
				l0.4,1.4c0.1,0.3,0.1,0.5,0.1,0.6c0,0.4-0.2,0.6-0.4,0.6c-0.5,0.1-0.9,0.2-0.9,0.9c0,0.8,0.6,0.8,0.8,0.8c0.5,0,2.8-0.1,3.3-0.1
				c1.3,0,2.3,0.1,2.8,0.1c0.3,0,0.7-0.1,0.7-0.7C211.3,50.2,210.9,50.1,210.7,50 M203.5,44.5h-1.8c-0.2,0-0.3-0.1-0.3-0.2
				c0-0.1,0-0.3,0.1-0.6l1-3.9l0.9,3.5c0.1,0.4,0.3,0.8,0.3,1C203.8,44.4,203.8,44.5,203.5,44.5"/>
		</g>
	</g>
</g>
</svg>
