<svg xmlns="http://www.w3.org/2000/svg" viewBox="0 0 101.951 61.685">
  <defs>
    <style>
      .cls-1 {
        fill: #cdd9dd;
      }
    </style>
  </defs>
  <path id="Subtraction_1" data-name="Subtraction 1" class="cls-1" d="M4699.613-248.429h-3.123l-5.3-43.167a7.7,7.7,0,0,1,1.588-5.713,7.693,7.693,0,0,1,5.158-2.921l80.014-9.824a7.831,7.831,0,0,1,.951-.058,7.754,7.754,0,0,1,7.685,6.8l6.438,52.438a7.712,7.712,0,0,1-.087,2.441h-3.2a4.6,4.6,0,0,0,.214-2.065l-6.438-52.436a4.627,4.627,0,0,0-.57-1.726L4755-273.537l19.638,14.358a1.533,1.533,0,0,1,.615,1.011,1.543,1.543,0,0,1-.281,1.153,1.548,1.548,0,0,1-1.063.624,1.575,1.575,0,0,1-.188.011,1.528,1.528,0,0,1-.915-.3l-19.739-14.431a1.5,1.5,0,0,1-.14-.116l-4.479,4.988a8.624,8.624,0,0,1-5.4,2.733,9.312,9.312,0,0,1-1.131.069,8.464,8.464,0,0,1-4.768-1.412l-5.551-3.758c-.041.06-.074.1-.106.144l-15.667,18.777a1.531,1.531,0,0,1-1,.549,1.533,1.533,0,0,1-.189.012,1.557,1.557,0,0,1-.992-.36,1.54,1.54,0,0,1-.551-1.05,1.537,1.537,0,0,1,.352-1.131l15.586-18.681L4694.4-293.795a4.634,4.634,0,0,0-.138,1.821l5.347,43.544Zm79.286-58.585a4.7,4.7,0,0,0-.571.035l-80.015,9.824a4.639,4.639,0,0,0-2.124.824l42.7,28.911a5.392,5.392,0,0,0,3.037.885,5.7,5.7,0,0,0,4.214-1.776l34.453-38.38a4.59,4.59,0,0,0-1.7-.324Z" transform="translate(-4691.131 310.114)"/>
</svg>
