<svg xmlns="http://www.w3.org/2000/svg" viewBox="0 0 32 41.455">
  <defs>
    <style>
      .cls-1 {
        fill: #003e52;
      }
    </style>
  </defs>
  <g id="_003-locked" data-name="003-locked" transform="translate(-6.5 0)">
    <path id="Path_1318" data-name="Path 1318" class="cls-1" d="M31.227,16.727V8.437C31.227,3.785,27.149,0,22.136,0s-9.091,3.785-9.091,8.437v8.29H6.5V41.455h32V16.727ZM14.5,8.437c0-3.85,3.425-6.983,7.636-6.983s7.636,3.132,7.636,6.983v8.29H14.5ZM37.045,40H7.955V37.091H37.045ZM7.955,35.636V18.182H37.045V35.636Z"/>
    <path id="Path_1319" data-name="Path 1319" class="cls-1" d="M27.409,31A2.912,2.912,0,0,0,24.5,33.909v4.364a2.909,2.909,0,0,0,5.818,0V33.909A2.912,2.912,0,0,0,27.409,31Zm1.455,7.273a1.455,1.455,0,0,1-2.909,0V33.909a1.455,1.455,0,1,1,2.909,0Z" transform="translate(-4.909 -8.455)"/>
  </g>
</svg>
