<svg xmlns="http://www.w3.org/2000/svg" viewBox="0 0 51.604 43.119">
  <defs>
    <style>
      .cls-1 {
        fill: #003e52;
      }
    </style>
  </defs>
  <g id="_001-handshake" data-name="001-handshake" transform="translate(0 -42.094)">
    <g id="Group_437" data-name="Group 437" transform="translate(0 42.094)">
      <path id="Path_1313" data-name="Path 1313" class="cls-1" d="M51.383,69.881l-3.9-3.9a2.732,2.732,0,0,0-3.417-.361l-3.33-3.33,1.155-1.154a3.161,3.161,0,0,0-1.958-5.383,3.159,3.159,0,0,0-2.6-4.034,3.16,3.16,0,0,0-2.686-4.3,3.161,3.161,0,0,0-4.762-3.524l-.208-.395a2.476,2.476,0,0,0-2.527-1.3l-4.766.664A3.054,3.054,0,0,0,17.3,44.973a3.083,3.083,0,0,0-.65-.07,3.037,3.037,0,0,0-2.162.9h0a3.059,3.059,0,0,0-.748,3.1,3.041,3.041,0,0,0-1.794.871h0a3.058,3.058,0,0,0-.8,2.905,3.043,3.043,0,0,0-1.918.883h0a3.061,3.061,0,0,0,0,4.323l1.191,1.191a3.061,3.061,0,0,0,.42.35,5.351,5.351,0,0,0,1.009,2.41L7.54,66.139a2.736,2.736,0,0,0-3.417.361l-3.9,3.9a.756.756,0,0,0,1.069,1.069l3.9-3.9a1.221,1.221,0,0,1,1.725,0L9.344,70a.756.756,0,0,0,1.069-1.069L8.652,67.165,13.415,62.4a.756.756,0,0,0,0-1.069,3.834,3.834,0,0,1-.88-1.371h.047a3.054,3.054,0,0,0,3.045-2.785,3.076,3.076,0,0,0,.777.1,3.054,3.054,0,0,0,3.026-2.635,3.058,3.058,0,0,0,3.547-4.606,3.038,3.038,0,0,0,1.45-.812l.027-.029c.139-.01.279-.027.418-.051l1.752-.306a.755.755,0,0,0,.582-.23l.014-.014h0l.735-.735,2.237-2.237.022-.023.227-.227a1.649,1.649,0,1,1,2.333,2.332l-.624.624A.756.756,0,0,0,33.22,49.4l0,0a1.649,1.649,0,0,1,2.329,2.334l-.878.879,0,0a.756.756,0,0,0,1.07,1.068l0,0a1.651,1.651,0,0,1,2.328,0,1.651,1.651,0,0,1,0,2.332l-.65.65a.756.756,0,0,0,1.069,1.07,1.649,1.649,0,1,1,2.332,2.332l-1.68,1.68-.009.008-.008.009-9.7,9.7a3.485,3.485,0,0,1-4.93,0l-.137-.137a.756.756,0,0,0-1.069,0l-5.236,5.236-5.487-5.487a.756.756,0,0,0-1.069,1.069L17.646,78.3a1.221,1.221,0,0,1,0,1.725l-3.9,3.9a.756.756,0,0,0,1.069,1.069l3.9-3.9a2.736,2.736,0,0,0,.361-3.417l4.766-4.766a5,5,0,0,0,6.648-.375l9.176-9.175,3.288,3.288-9.4,9.4-1.96-1.96a.756.756,0,1,0-1.069,1.069l2,2a2.732,2.732,0,0,0,.361,3.417l3.9,3.9A.756.756,0,0,0,37.861,83.4l-3.9-3.9a1.219,1.219,0,0,1,0-1.725L44.688,67.049a1.219,1.219,0,0,1,1.725,0l3.9,3.9a.756.756,0,1,0,1.069-1.069ZM19.261,44.059a1.534,1.534,0,0,1,1-.449c-.012.016-.026.03-.038.046a1.613,1.613,0,0,0-.3,1.221l.131.825a4.123,4.123,0,0,0,1.688,2.73c.072.052.146.1.221.147a1.533,1.533,0,0,1-.792-.424L20.122,47.1l-.865-.865A1.548,1.548,0,0,1,19.261,44.059ZM13.675,58a1.547,1.547,0,0,1-2.186,0L10.3,56.809a1.547,1.547,0,0,1,0-2.186h0a1.547,1.547,0,0,1,2.184,0l.748.748.444.444a1.545,1.545,0,0,1,0,2.185ZM17.5,55.313a1.545,1.545,0,0,1-2.186,0L14.3,54.3l-.747-.747,0,0-.532-.532a1.547,1.547,0,0,1,0-2.186h0a1.547,1.547,0,0,1,2.185,0L17.5,53.128A1.548,1.548,0,0,1,17.5,55.313Zm4.049-2.46a1.545,1.545,0,0,1-2.186,0l-.794-.794h0l-2.293-2.293,0,0-.709-.709a1.547,1.547,0,0,1,0-2.186h0a1.547,1.547,0,0,1,2.186,0l.437.437.008.008.829.829,2.526,2.526A1.547,1.547,0,0,1,21.547,52.853ZM28.2,45.481,26.32,47.358l-1.707.3a2.641,2.641,0,0,1-3.063-2.189l-.131-.825a.113.113,0,0,1,.1-.13l5.84-.814a.935.935,0,0,1,.132-.009.962.962,0,0,1,.849.512l.393.748Z" transform="translate(0 -42.094)"/>
    </g>
  </g>
</svg>
