<svg xmlns="http://www.w3.org/2000/svg" viewBox="0 0 35.443 49.455">
  <defs>
    <style>
      .cls-1 {
        fill: #51816d;
      }
    </style>
  </defs>
  <g id="_002-microscope" data-name="002-microscope" transform="translate(0 0)">
    <path id="Path_1314" data-name="Path 1314" class="cls-1" d="M173.14,128a2.473,2.473,0,0,0,0,4.945,2.438,2.438,0,0,0,1.572-.561,2.473,2.473,0,0,0,.9-1.911,2.425,2.425,0,0,0-.165-.886A2.5,2.5,0,0,0,173.14,128Zm.521,3.114a.8.8,0,0,1-.521.183.824.824,0,0,1,0-1.648.857.857,0,0,1,.774.537.777.777,0,0,1,.05.287A.832.832,0,0,1,173.662,131.114Zm0,0" transform="translate(-154.183 -115.636)"/>
    <path id="Path_1315" data-name="Path 1315" class="cls-1" d="M1.648,38.739h9.891v3.3H4.121c-2.188,0-3.3.832-3.3,2.473V48.63a.824.824,0,0,0,.824.824H32.97a.824.824,0,0,0,.824-.824V44.509c0-1.641-1.11-2.473-3.3-2.473H27.634a16.475,16.475,0,0,0-3.469-29.645,5.806,5.806,0,0,0-5.208-3.325,5.747,5.747,0,0,0-4.121,1.74V9.067a2.474,2.474,0,0,0-1.648-2.321V4.794a2.473,2.473,0,0,0,1.648-2.321V.824A.824.824,0,0,0,14.012,0H4.121A.824.824,0,0,0,3.3.824V2.473A2.473,2.473,0,0,0,4.945,4.794V6.746A2.474,2.474,0,0,0,3.3,9.067V22.254c0,.011.006.02.006.031a.829.829,0,0,0,.051.253c.008.018.011.036.019.054s.006.021.011.031l1.562,3.123v.63a4.121,4.121,0,1,0,8.243,0v-.63l1.566-3.123c0-.01.006-.021.011-.031s.011-.036.019-.054a.824.824,0,0,0,.051-.254c0-.01.006-.019.006-.03V18.866a5.713,5.713,0,0,0,7.379.709,9.06,9.06,0,0,1-3.263,17.516h-.824V35.442a1.648,1.648,0,0,0-1.648-1.648H1.648A1.648,1.648,0,0,0,0,35.442v1.648A1.648,1.648,0,0,0,1.648,38.739Zm30.5,5.77v3.3H2.473v-3.3c0-.387,0-.824,1.648-.824H30.5C32.146,43.685,32.146,44.122,32.146,44.509ZM6.594,4.945h4.945V6.594H6.594Zm-1.648-3.3h8.243v.824a.824.824,0,0,1-.824.824H5.77a.824.824,0,0,1-.824-.824Zm6.909,23.079H6.279l-.824-1.648h7.224ZM9.067,28.849a2.473,2.473,0,0,1-2.473-2.473h4.945A2.473,2.473,0,0,1,9.067,28.849Zm4.121-7.418H4.945V9.067a.824.824,0,0,1,.824-.824h6.594a.825.825,0,0,1,.824.824Zm1.648-6.594a4.121,4.121,0,0,1,7.969-1.484,4.064,4.064,0,0,1,.274,1.484,4.115,4.115,0,0,1-1.5,3.181,4.069,4.069,0,0,1-2.624.94A4.126,4.126,0,0,1,14.837,14.837ZM29.673,28.024a10.7,10.7,0,0,0-6.131-9.682c.011-.012.017-.028.027-.041a5.727,5.727,0,0,0,.421-.654c.034-.06.067-.12.1-.182a5.7,5.7,0,0,0,.33-.761c0-.012.006-.024.01-.035a5.674,5.674,0,0,0,.195-.776c.013-.07.025-.139.035-.21a5.762,5.762,0,0,0,.069-.845c0-.165-.008-.33-.021-.495a14.836,14.836,0,0,1-.886,27.694H13.188v-3.3h5.769A10.727,10.727,0,0,0,29.673,28.024ZM1.648,35.442H16.485v1.648H1.648Zm0,0"/>
    <path id="Path_1316" data-name="Path 1316" class="cls-1" d="M69.09,102.4a.824.824,0,0,0-.824.824v4.121a.824.824,0,0,0,1.648,0v-4.121A.824.824,0,0,0,69.09,102.4Zm0,0" transform="translate(-61.672 -92.508)"/>
    <path id="Path_1317" data-name="Path 1317" class="cls-1" d="M69.09,179.2a.824.824,0,0,0-.824.824v.824a.824.824,0,1,0,1.648,0v-.824A.824.824,0,0,0,69.09,179.2Zm0,0" transform="translate(-61.672 -161.89)"/>
  </g>
</svg>
