<svg id="_003-credit-card" data-name="003-credit-card" xmlns="http://www.w3.org/2000/svg" viewBox="0 0 29.254 29.254">
  <defs>
    <style>
      .cls-1 {
        fill: #57b6b2;
      }
    </style>
  </defs>
  <path id="Path_1715" data-name="Path 1715" class="cls-1" d="M37.389,11H13.866A2.9,2.9,0,0,0,11,13.866V29.239a2.9,2.9,0,0,0,2.866,2.866h5.355v7.529a.586.586,0,0,0,.621.621H31.418a.682.682,0,0,0,.687-.621V32.1h5.284a2.9,2.9,0,0,0,2.866-2.866V13.866A2.9,2.9,0,0,0,37.389,11ZM13.866,12.248H37.329a1.647,1.647,0,0,1,1.618,1.618v2.615h-26.7V13.866A1.647,1.647,0,0,1,13.866,12.248ZM30.857,39.007h-4.6V35.956H25.006v3.051H20.463v-8.09H30.857Zm-2.364-9.332H22.762v-3.8A1.939,1.939,0,0,1,24.69,23.95h1.869a1.939,1.939,0,0,1,1.928,1.928v3.8Zm8.836,1.182H32.1V30.3a.586.586,0,0,0-.621-.621H29.735v-3.8A3.19,3.19,0,0,0,26.559,22.7H24.69a3.19,3.19,0,0,0-3.176,3.176v3.8H19.836a.586.586,0,0,0-.621.621v.561H13.866a1.647,1.647,0,0,1-1.618-1.618V17.723H38.953V29.239A1.656,1.656,0,0,1,37.329,30.857Z" transform="translate(-11 -11)"/>
</svg>
