<svg xmlns="http://www.w3.org/2000/svg" viewBox="0 0 43.768 31.833">
  <defs>
    <style>
      .cls-1 {
        fill: #57b6b2;
      }
    </style>
  </defs>
  <g id="_004-smartphone" data-name="004-smartphone" transform="translate(-0.969 0)">
    <path id="Path_1716" data-name="Path 1716" class="cls-1" d="M39.742,10.345l-7.26,3.67V.593c0-.293.535-.593,0-.593L2.438.064c-.535,0-.969.237-.969.53V31.3c0,.293.434.53.969.53H31.514c.535,0,.969-.237.969-.53V18.763l11.728-6.434c1.451-.784,1.022-1.443.744-1.983-.009-.005-.734-.732-.744-.737C42.75,8.821,41.2,9.557,39.742,10.345ZM2.438,1.059H31.513V3.177H2.438ZM31.513,30.711H2.438V28.063H31.513Zm0-3.707H2.438V4.236H31.513V14.615l-8.432,4.573a.661.661,0,0,0-.209.168l-1.451,2.487c-.211.269.018.58.51.695a1.723,1.723,0,0,0,.762,0l5.169-1.36a1.211,1.211,0,0,0,.3-.111l3.161-1.715ZM43.59,11.711l-16.476,8.93-4.421,1.031,1.88-2.4,12.12-6.568,4.356-2.36a2.978,2.978,0,0,1,2.542,0c.69.373.7.98.016,1.358l-.016.008Zm0,0" transform="translate(-0.5)"/>
    <path id="Path_1717" data-name="Path 1717" class="cls-1" d="M83.771,377.294a.608.608,0,0,1-.839,0,1.655,1.655,0,0,0-2.337,0l-.794.794.749.749.794-.794a.594.594,0,0,1,.839,0,1.694,1.694,0,0,0,2.338,0l.794-.794-.749-.749Zm0,0" transform="translate(-69.631 -353.138)"/>
    <path id="Path_1718" data-name="Path 1718" class="cls-1" d="M85.832,213.332h7.413v1.059H85.832Zm0,0" transform="translate(-74.275 -200.095)"/>
    <path id="Path_1719" data-name="Path 1719" class="cls-1" d="M85.832,264.535h7.413v1.059H85.832Zm0,0" transform="translate(-74.275 -248.121)"/>
    <path id="Path_1720" data-name="Path 1720" class="cls-1" d="M111.964,91.465a.529.529,0,0,0,.9.374l.684-.684.685.684a.529.529,0,0,0,.374.155.521.521,0,0,0,.2-.04.53.53,0,0,0,.327-.489v-2.85a2.118,2.118,0,1,0-3.177,0Zm2.118-1.278-.155-.155a.529.529,0,0,0-.749,0l-.155.155v-.915a1.9,1.9,0,0,0,1.059,0Zm-.53-4.017a1.059,1.059,0,1,1-1.059,1.059A1.059,1.059,0,0,1,113.552,86.17Zm0,0" transform="translate(-97.663 -79.816)"/>
  </g>
</svg>
