<svg xmlns="http://www.w3.org/2000/svg" viewBox="0 0 35.517 29.172">
  <defs>
    <style>
      .cls-1 {
        fill: #57b6b2;
      }
    </style>
  </defs>
  <g id="_002-hide" data-name="002-hide" transform="translate(0 -5.274)">
    <path id="Path_1710" data-name="Path 1710" class="cls-1" d="M6.788,29.985a.6.6,0,1,0,.75-.941,16.461,16.461,0,0,1-1.386-1.239L1.7,23.355,6.29,18.767a16.238,16.238,0,0,1,16.745-3.93.6.6,0,1,0,.383-1.141A17.435,17.435,0,0,0,5.44,17.916L0,23.355l5.3,5.3A17.757,17.757,0,0,0,6.788,29.985Z" transform="translate(0 -2.988)"/>
    <path id="Path_1711" data-name="Path 1711" class="cls-1" d="M37.75,19.817a17.668,17.668,0,0,0-2.643-2.175.6.6,0,0,0-.671,1A16.446,16.446,0,0,1,36.9,20.667l4.45,4.45-4.589,4.589a16.4,16.4,0,0,1-17.054,3.823.6.6,0,0,0-.406,1.133,17.594,17.594,0,0,0,18.31-4.105l5.439-5.439Z" transform="translate(-7.532 -4.888)"/>
    <path id="Path_1712" data-name="Path 1712" class="cls-1" d="M27.511,34.025a6.9,6.9,0,0,1-3.651-1.041.6.6,0,0,0-.635,1.021A8.121,8.121,0,0,0,34.263,22.6a.6.6,0,0,0-1,.669,6.918,6.918,0,0,1-5.752,10.761Z" transform="translate(-9.142 -6.796)"/>
    <path id="Path_1713" data-name="Path 1713" class="cls-1" d="M25.159,17.977a6.907,6.907,0,0,1,3.522.962.6.6,0,0,0,.613-1.035A8.123,8.123,0,0,0,17.864,28.468a.6.6,0,1,0,1.08-.529,6.852,6.852,0,0,1-.7-3.044A6.926,6.926,0,0,1,25.159,17.977Z" transform="translate(-6.79 -4.583)"/>
    <path id="Path_1714" data-name="Path 1714" class="cls-1" d="M35.41,5.45a.6.6,0,0,0-.851,0L6.59,33.42a.6.6,0,1,0,.851.851L35.41,6.3A.6.6,0,0,0,35.41,5.45Z" transform="translate(-2.556)"/>
  </g>
</svg>
