<svg xmlns="http://www.w3.org/2000/svg" viewBox="0 0 26.494 37.724">
  <defs>
    <style>
      .cls-1 {
        fill: #57b6b2;
      }
    </style>
  </defs>
  <g id="_001-encrypted" data-name="001-encrypted" transform="translate(0)">
    <path id="Path_1702" data-name="Path 1702" class="cls-1" d="M24.563,8,16.725.162A.559.559,0,0,0,16.334,0H1.682A1.684,1.684,0,0,0,0,1.682v30.6a1.684,1.684,0,0,0,1.682,1.682h8.4a.553.553,0,1,0,0-1.105h-8.4a.578.578,0,0,1-.577-.577V1.682a.578.578,0,0,1,.577-.577h14.1V7.261a1.684,1.684,0,0,0,1.682,1.682H23.62v8.629a.553.553,0,0,0,1.105,0V8.391A.554.554,0,0,0,24.563,8Zm-7.1-.162a.578.578,0,0,1-.577-.577V1.887l5.952,5.952Zm0,0" transform="translate(0 0)"/>
    <path id="Path_1703" data-name="Path 1703" class="cls-1" d="M59.752,150.41h14.9a.553.553,0,1,0,0-1.105h-14.9a.553.553,0,1,0,0,1.105Zm0,0" transform="translate(-54.837 -138.304)"/>
    <path id="Path_1704" data-name="Path 1704" class="cls-1" d="M59.752,184.476h14.9a.553.553,0,1,0,0-1.105h-14.9a.553.553,0,1,0,0,1.105Zm0,0" transform="translate(-54.837 -169.861)"/>
    <path id="Path_1705" data-name="Path 1705" class="cls-1" d="M59.752,218.543h14.9a.553.553,0,0,0,0-1.105h-14.9a.553.553,0,0,0,0,1.105Zm0,0" transform="translate(-54.837 -201.417)"/>
    <path id="Path_1706" data-name="Path 1706" class="cls-1" d="M59.752,252.613h14.9a.553.553,0,1,0,0-1.105h-14.9a.553.553,0,1,0,0,1.105Zm0,0" transform="translate(-54.837 -232.977)"/>
    <path id="Path_1707" data-name="Path 1707" class="cls-1" d="M59.752,286.683h14.9a.553.553,0,1,0,0-1.105h-14.9a.553.553,0,1,0,0,1.105Zm0,0" transform="translate(-54.837 -264.537)"/>
    <path id="Path_1708" data-name="Path 1708" class="cls-1" d="M79.563,270.4v-3.843a.553.553,0,0,0-1.105,0v2.779a4.388,4.388,0,0,0-5.63.621H59.752a.553.553,0,0,0,0,1.105h12.3a4.365,4.365,0,0,0-.413,1.4H59.752a.553.553,0,0,0,0,1.105h11.86v1.222a1.376,1.376,0,0,0-.924,1.3v3.177H67.5a.553.553,0,1,0,0,1.105h3.185v2.382a1.376,1.376,0,0,0,1.374,1.374h7.9a1.376,1.376,0,0,0,1.374-1.374v-6.664a1.376,1.376,0,0,0-.924-1.3C80.408,272.984,80.576,271.783,79.563,270.4Zm-3.553-.705a3.286,3.286,0,0,1,2.576,1.246c.864,1.086.716,2.029.716,3.776H78.7v-1.729a2.686,2.686,0,1,0-5.373,0v1.729h-.606v-1.729A3.3,3.3,0,0,1,76.01,269.691Zm-1.581,5.022v-1.729a1.581,1.581,0,1,1,3.162,0v1.729Zm5.8,8.038a.273.273,0,0,1-.269.269h-7.9a.273.273,0,0,1-.269-.269v-6.664a.273.273,0,0,1,.269-.269h7.9a.272.272,0,0,1,.269.269v6.664Zm0,0" transform="translate(-54.837 -246.401)"/>
    <path id="Path_1709" data-name="Path 1709" class="cls-1" d="M266.1,409.723a1.691,1.691,0,1,0,1.691,1.691A1.693,1.693,0,0,0,266.1,409.723Zm0,2.277a.586.586,0,1,1,.586-.586A.586.586,0,0,1,266.1,412Zm0,0" transform="translate(-244.925 -379.535)"/>
  </g>
</svg>
